<?xml version="1.0" encoding="UTF-8" standalone="no"?><!-- Generator: Gravit.io --><svg xmlns="http://www.w3.org/2000/svg" xmlns:xlink="http://www.w3.org/1999/xlink" style="isolation:isolate" viewBox="0 0 430.866 155.906" width="430.866pt" height="155.906pt"><g><g><path d=" M 144.939 72.811 L 140.267 72.811 L 140.267 68.103 L 144.939 68.103 L 144.939 72.811 L 144.939 72.811 Z  M 150.181 60.507 L 146.686 60.507 L 146.686 57.012 L 150.181 57.012 L 150.181 60.507 L 150.181 60.507 Z  M 191.086 60.507 L 187.591 60.507 L 187.591 57.012 L 191.086 57.012 L 191.086 60.507 L 191.086 60.507 Z  M 145.509 61.684 L 151.358 61.684 L 151.358 55.835 L 145.509 55.835 L 145.509 61.684 L 145.509 61.684 Z  M 144.939 49.416 L 140.267 49.416 L 140.267 44.744 L 144.939 44.744 L 144.939 49.416 L 144.939 49.416 Z  M 156.03 42.997 L 152.535 42.997 L 152.535 39.502 L 156.03 39.502 L 156.03 42.997 L 156.03 42.997 Z  M 179.995 43.567 L 175.323 43.567 L 175.323 38.895 L 179.995 38.895 L 179.995 43.567 L 179.995 43.567 Z  M 186.415 125.948 L 145.509 125.948 L 145.509 120.135 L 139.696 120.135 L 139.696 73.381 L 145.509 73.381 L 145.509 67.533 L 139.696 67.533 L 139.696 50.022 L 145.509 50.022 L 145.509 38.325 L 151.358 38.325 L 151.358 44.173 L 157.207 44.173 L 157.207 38.325 L 174.753 38.325 L 174.753 44.173 L 180.566 44.173 L 180.566 38.325 L 186.415 38.325 L 186.415 44.173 L 192.263 44.173 L 192.263 55.835 L 186.415 55.835 L 186.415 61.684 L 174.753 61.684 L 174.753 55.835 L 157.207 55.835 L 157.207 108.438 L 174.753 108.438 L 174.753 102.589 L 192.263 102.589 L 192.263 120.135 L 186.415 120.135 L 186.415 125.948 L 186.415 125.948 Z  M 174.147 37.754 L 169.475 37.754 L 169.475 33.047 L 174.147 33.047 L 174.147 37.754 L 174.147 37.754 Z  M 184.667 30.729 L 182.349 30.729 L 182.349 28.375 L 184.667 28.375 L 184.667 30.729 L 184.667 30.729 Z  M 161.879 31.299 L 158.384 31.299 L 158.384 27.804 L 161.879 27.804 L 161.879 31.299 L 161.879 31.299 Z  M 151.358 32.476 L 145.509 32.476 L 145.509 26.627 L 151.358 26.627 L 151.358 32.476 L 151.358 32.476 Z  M 149.611 19.031 L 147.257 19.031 L 147.257 16.713 L 149.611 16.713 L 149.611 19.031 L 149.611 19.031 Z  M 173.576 19.637 L 170.045 19.637 L 170.045 16.107 L 173.576 16.107 L 173.576 19.637 L 173.576 19.637 Z  M 186.415 20.779 L 180.566 20.779 L 180.566 14.966 L 186.415 14.966 L 186.415 20.779 L 186.415 20.779 Z  M 161.308 13.183 L 158.954 13.183 L 158.954 10.864 L 161.308 10.864 L 161.308 13.183 L 161.308 13.183 Z  M 226.143 89.75 L 222.648 89.75 L 222.648 86.22 L 226.143 86.22 L 226.143 89.75 L 226.143 89.75 Z  M 243.653 89.75 L 240.158 89.75 L 240.158 86.22 L 243.653 86.22 L 243.653 89.75 L 243.653 89.75 Z  M 209.203 90.321 L 204.531 90.321 L 204.531 85.649 L 209.203 85.649 L 209.203 90.321 L 209.203 90.321 Z  M 203.925 90.892 L 209.774 90.892 L 209.774 85.079 L 203.925 85.079 L 203.925 90.892 L 203.925 90.892 Z  M 215.622 108.438 L 233.168 108.438 L 233.168 90.892 L 227.32 90.892 L 227.32 85.079 L 221.471 85.079 L 221.471 90.892 L 215.622 90.892 L 215.622 108.438 L 215.622 108.438 Z  M 238.982 90.892 L 244.83 90.892 L 244.83 85.079 L 238.982 85.079 L 238.982 90.892 L 238.982 90.892 Z  M 214.446 78.053 L 210.951 78.053 L 210.951 74.558 L 214.446 74.558 L 214.446 78.053 L 214.446 78.053 Z  M 238.411 78.624 L 233.739 78.624 L 233.739 73.952 L 238.411 73.952 L 238.411 78.624 L 238.411 78.624 Z  M 202.178 71.634 L 199.859 71.634 L 199.859 69.28 L 202.178 69.28 L 202.178 71.634 L 202.178 71.634 Z  M 243.653 72.204 L 240.158 72.204 L 240.158 68.709 L 243.653 68.709 L 243.653 72.204 L 243.653 72.204 Z  M 244.83 125.948 L 203.925 125.948 L 203.925 120.135 L 198.112 120.135 L 198.112 79.23 L 203.925 79.23 L 203.925 73.381 L 209.774 73.381 L 209.774 79.23 L 215.622 79.23 L 215.622 73.381 L 221.471 73.381 L 221.471 67.533 L 227.32 67.533 L 227.32 73.381 L 233.168 73.381 L 233.168 79.23 L 238.982 79.23 L 238.982 73.381 L 244.83 73.381 L 244.83 79.23 L 250.679 79.23 L 250.679 120.135 L 244.83 120.135 L 244.83 125.948 L 244.83 125.948 Z  M 209.203 66.962 L 204.531 66.962 L 204.531 62.29 L 209.203 62.29 L 209.203 66.962 L 209.203 66.962 Z  M 249.502 60.507 L 246.007 60.507 L 246.007 57.012 L 249.502 57.012 L 249.502 60.507 L 249.502 60.507 Z  M 219.724 54.088 L 217.37 54.088 L 217.37 51.77 L 219.724 51.77 L 219.724 54.088 L 219.724 54.088 Z  M 232.562 55.265 L 227.89 55.265 L 227.89 50.593 L 232.562 50.593 L 232.562 55.265 L 232.562 55.265 Z  M 243.083 48.239 L 240.765 48.239 L 240.765 45.921 L 243.083 45.921 L 243.083 48.239 L 243.083 48.239 Z  M 208.597 48.845 L 205.102 48.845 L 205.102 45.35 L 208.597 45.35 L 208.597 48.845 L 208.597 48.845 Z  M 261.199 95.599 L 257.669 95.599 L 257.669 92.069 L 261.199 92.069 L 261.199 95.599 L 261.199 95.599 Z  M 284.559 89.75 L 281.064 89.75 L 281.064 86.22 L 284.559 86.22 L 284.559 89.75 L 284.559 89.75 Z  M 274.038 108.438 L 291.584 108.438 L 291.584 90.892 L 285.735 90.892 L 285.735 85.079 L 279.887 85.079 L 279.887 90.892 L 274.038 90.892 L 274.038 108.438 L 274.038 108.438 Z  M 308.524 84.472 L 303.852 84.472 L 303.852 79.801 L 308.524 79.801 L 308.524 84.472 L 308.524 84.472 Z  M 278.71 78.053 L 275.215 78.053 L 275.215 74.558 L 278.71 74.558 L 278.71 78.053 L 278.71 78.053 Z  M 289.801 71.634 L 287.483 71.634 L 287.483 69.28 L 289.801 69.28 L 289.801 71.634 L 289.801 71.634 Z  M 272.861 72.204 L 269.366 72.204 L 269.366 68.709 L 272.861 68.709 L 272.861 72.204 L 272.861 72.204 Z  M 278.71 66.356 L 275.215 66.356 L 275.215 62.861 L 278.71 62.861 L 278.71 66.356 L 278.71 66.356 Z  M 260.593 59.936 L 258.275 59.936 L 258.275 57.618 L 260.593 57.618 L 260.593 59.936 L 260.593 59.936 Z  M 285.129 61.113 L 280.457 61.113 L 280.457 56.441 L 285.129 56.441 L 285.129 61.113 L 285.129 61.113 Z  M 273.467 55.265 L 268.796 55.265 L 268.796 50.593 L 273.467 50.593 L 273.467 55.265 L 273.467 55.265 Z  M 260.593 48.239 L 258.275 48.239 L 258.275 45.921 L 260.593 45.921 L 260.593 48.239 L 260.593 48.239 Z  M 278.139 48.239 L 275.786 48.239 L 275.786 45.921 L 278.139 45.921 L 278.139 48.239 L 278.139 48.239 Z  M 302.675 49.416 L 298.003 49.416 L 298.003 44.744 L 302.675 44.744 L 302.675 49.416 L 302.675 49.416 Z  M 297.397 50.022 L 303.246 50.022 L 303.246 44.173 L 297.397 44.173 L 297.397 50.022 L 297.397 50.022 Z  M 309.095 125.948 L 262.341 125.948 L 262.341 120.135 L 256.528 120.135 L 256.528 96.74 L 262.341 96.74 L 262.341 90.892 L 256.528 90.892 L 256.528 79.23 L 262.341 79.23 L 262.341 73.381 L 274.038 73.381 L 274.038 79.23 L 279.887 79.23 L 279.887 73.381 L 291.584 73.381 L 291.584 38.325 L 309.095 38.325 L 309.095 79.23 L 303.246 79.23 L 303.246 85.079 L 309.095 85.079 L 309.095 125.948 L 309.095 125.948 Z  M 307.347 30.729 L 304.993 30.729 L 304.993 28.375 L 307.347 28.375 L 307.347 30.729 L 307.347 30.729 Z  M 296.256 31.299 L 292.725 31.299 L 292.725 27.804 L 296.256 27.804 L 296.256 31.299 L 296.256 31.299 Z  M 302.675 26.057 L 298.003 26.057 L 298.003 21.385 L 302.675 21.385 L 302.675 26.057 L 302.675 26.057 Z  M 295.65 19.031 L 293.332 19.031 L 293.332 16.713 L 295.65 16.713 L 295.65 19.031 L 295.65 19.031 Z  M 326.034 90.321 L 321.363 90.321 L 321.363 85.649 L 326.034 85.649 L 326.034 90.321 L 326.034 90.321 Z  M 361.091 90.321 L 356.419 90.321 L 356.419 85.649 L 361.091 85.649 L 361.091 90.321 L 361.091 90.321 Z  M 355.813 90.892 L 361.661 90.892 L 361.661 85.079 L 355.813 85.079 L 355.813 90.892 L 355.813 90.892 Z  M 320.756 90.892 L 326.605 90.892 L 326.605 85.079 L 320.756 85.079 L 320.756 90.892 L 320.756 90.892 Z  M 332.454 96.74 L 350 96.74 L 350 90.892 L 332.454 90.892 L 332.454 96.74 L 332.454 96.74 Z  M 367.51 90.892 L 361.661 90.892 L 361.661 96.74 L 367.51 96.74 L 367.51 102.589 L 332.454 102.589 L 332.454 108.438 L 367.51 108.438 L 367.51 120.135 L 361.661 120.135 L 361.661 125.948 L 320.756 125.948 L 320.756 120.135 L 314.943 120.135 L 314.943 79.23 L 320.756 79.23 L 320.756 73.381 L 326.605 73.381 L 326.605 79.23 L 332.454 79.23 L 332.454 73.381 L 338.302 73.381 L 338.302 79.23 L 344.151 79.23 L 344.151 73.381 L 350 73.381 L 350 67.533 L 355.813 67.533 L 355.813 73.381 L 361.661 73.381 L 361.661 79.23 L 367.51 79.23 L 367.51 90.892 L 367.51 90.892 Z  M 342.404 48.239 L 340.05 48.239 L 340.05 45.921 L 342.404 45.921 L 342.404 48.239 L 342.404 48.239 Z  M 324.857 48.239 L 322.504 48.239 L 322.504 45.921 L 324.857 45.921 L 324.857 48.239 L 324.857 48.239 Z  M 361.091 55.265 L 356.419 55.265 L 356.419 50.593 L 361.091 50.593 L 361.091 55.265 L 361.091 55.265 Z  M 348.823 54.694 L 345.292 54.694 L 345.292 51.163 L 348.823 51.163 L 348.823 54.694 L 348.823 54.694 Z  M 337.696 61.113 L 333.024 61.113 L 333.024 56.441 L 337.696 56.441 L 337.696 61.113 L 337.696 61.113 Z  M 325.428 60.507 L 321.933 60.507 L 321.933 57.012 L 325.428 57.012 L 325.428 60.507 L 325.428 60.507 Z  M 348.217 65.785 L 345.898 65.785 L 345.898 63.431 L 348.217 63.431 L 348.217 65.785 L 348.217 65.785 Z  M 320.186 72.811 L 315.514 72.811 L 315.514 68.103 L 320.186 68.103 L 320.186 72.811 L 320.186 72.811 Z  M 366.333 72.204 L 362.838 72.204 L 362.838 68.709 L 366.333 68.709 L 366.333 72.204 L 366.333 72.204 Z  M 337.125 72.204 L 333.631 72.204 L 333.631 68.709 L 337.125 68.709 L 337.125 72.204 L 337.125 72.204 Z  M 343.545 78.624 L 338.873 78.624 L 338.873 73.952 L 343.545 73.952 L 343.545 78.624 L 343.545 78.624 Z  M 331.277 78.053 L 327.782 78.053 L 327.782 74.558 L 331.277 74.558 L 331.277 78.053 L 331.277 78.053 Z  M 366.333 95.599 L 362.838 95.599 L 362.838 92.069 L 366.333 92.069 L 366.333 95.599 L 366.333 95.599 Z " fill="rgb(0,0,0)"/><path d=" M 63.146 79.937 L 63.146 79.937 L 66.494 79.937 L 66.494 79.937 Q 68.527 79.937 70.38 80.295 L 70.38 80.295 L 70.38 80.295 Q 72.234 80.654 72.234 82.926 L 72.234 82.926 L 72.234 82.926 Q 73.071 87.709 66.614 87.589 L 66.614 87.589 L 66.614 87.589 Q 64.82 87.47 63.325 87.35 L 63.325 87.35 L 63.325 87.35 Q 61.831 87.231 60.874 87.29 L 60.874 87.29 L 60.874 87.29 Q 59.917 87.35 60.037 87.948 L 60.037 87.948 L 60.037 87.948 Q 61.233 91.416 62.608 95.72 L 62.608 95.72 L 62.608 95.72 Q 63.983 100.025 65.657 104.33 L 65.657 104.33 L 65.657 104.33 Q 69.962 114.972 73.788 119.635 L 73.788 119.635 L 73.788 119.635 Q 71.755 122.146 69.065 123.82 L 69.065 123.82 L 69.065 123.82 Q 66.374 125.494 66.195 125.494 L 66.195 125.494 L 66.195 125.494 Q 66.016 125.494 65.896 125.375 L 65.896 125.375 L 49.036 89.861 L 16.393 97.873 L 15.197 102.895 L 15.197 102.895 Q 11.729 116.646 7.425 122.027 L 7.425 122.027 L 7.425 122.027 Q 6.707 123.222 4.435 122.266 L 4.435 122.266 L 4.435 122.266 Q 0.609 120.831 0.609 119.874 L 0.609 119.874 L 0.609 119.874 Q 0.609 119.635 3.12 112.939 L 3.12 112.939 L 3.12 112.939 Q 5.631 106.243 8.202 99.367 L 8.202 99.367 L 8.202 99.367 Q 10.773 92.492 13.583 84.959 L 13.583 84.959 L 13.583 84.959 Q 16.393 77.426 18.904 70.61 L 18.904 70.61 L 18.904 70.61 Q 21.415 63.794 23.448 58.354 L 23.448 58.354 L 23.448 58.354 Q 25.48 52.913 26.317 50.462 L 26.317 50.462 L 26.317 50.462 Q 27.154 48.01 27.453 46.157 L 27.453 46.157 L 27.453 46.157 Q 27.752 44.304 28.35 42.988 L 28.35 42.988 L 28.35 42.988 Q 29.546 40.238 34.329 40.238 L 34.329 40.238 L 34.329 40.238 Q 39.47 43.108 42.28 47.712 L 42.28 47.712 L 42.28 47.712 Q 45.09 52.315 47.063 57.576 L 47.063 57.576 L 47.063 57.576 Q 49.036 62.838 50.949 68.218 L 50.949 68.218 L 50.949 68.218 Q 52.863 73.599 56.091 78.023 L 56.091 78.023 L 56.091 78.023 Q 57.167 79.697 59.32 79.817 L 59.32 79.817 L 59.32 79.817 Q 61.472 79.937 63.146 79.937 Z  M 33.253 54.109 L 33.253 54.109 L 33.253 54.109 Q 32.296 61.403 28.948 69.055 L 28.948 69.055 L 28.948 69.055 Q 25.6 76.708 23.567 80.953 L 23.567 80.953 L 23.567 80.953 Q 21.534 85.198 20.099 88.785 L 20.099 88.785 L 20.099 88.785 Q 28.23 88.785 40.068 84.002 L 40.068 84.002 L 40.068 84.002 Q 43.058 82.687 45.808 81.611 L 45.808 81.611 L 45.808 81.611 Q 40.188 57.576 33.253 54.109 Z  M 120.063 92.851 L 120.063 92.851 L 120.063 92.851 Q 133.216 92.851 133.216 99.547 L 133.216 99.547 L 133.216 99.547 Q 133.216 104.569 125.922 111.265 L 125.922 111.265 L 125.922 111.265 Q 115.041 121.19 96.627 127.168 L 96.627 127.168 L 96.627 127.168 Q 95.79 127.168 94.773 125.494 L 94.773 125.494 L 94.773 125.494 Q 93.757 123.82 93.219 122.923 L 93.219 122.923 L 93.219 122.923 Q 92.681 122.027 92.442 121.787 L 92.442 121.787 L 92.442 121.787 Q 106.193 117.244 115.041 110.787 L 115.041 110.787 L 115.041 110.787 Q 121.02 106.482 121.02 103.732 L 121.02 103.732 L 121.02 103.732 Q 121.02 100.982 113.965 100.982 L 113.965 100.982 L 113.965 100.982 Q 106.91 100.982 93.279 104.33 L 93.279 104.33 L 93.279 104.33 Q 87.061 104.091 82.517 99.905 L 82.517 99.905 L 82.517 99.905 Q 78.571 96.199 78.571 92.432 L 78.571 92.432 L 78.571 92.432 Q 78.571 88.666 80.723 85.497 L 80.723 85.497 L 80.723 85.497 Q 82.876 82.328 86.463 79.578 L 86.463 79.578 L 86.463 79.578 Q 90.05 76.828 94.833 74.556 L 94.833 74.556 L 94.833 74.556 Q 106.551 68.936 119.106 68.936 L 119.106 68.936 L 119.106 68.936 Q 122.813 68.936 126.281 69.653 L 126.281 69.653 L 126.281 69.653 Q 129.151 69.653 129.629 72.164 L 129.629 72.164 L 129.629 72.164 Q 130.107 74.675 130.107 80.415 L 130.107 80.415 L 130.107 80.415 Q 123.052 77.186 114.204 77.186 L 114.204 77.186 L 114.204 77.186 Q 103.203 77.186 96.029 81.611 L 96.029 81.611 L 96.029 81.611 Q 88.615 85.915 88.376 92.851 L 88.376 92.851 L 88.376 92.851 Q 88.376 96.199 93.279 96.199 L 93.279 96.199 L 102.007 95.242 L 102.007 95.242 Q 113.247 92.851 120.063 92.851 Z " fill="rgb(170,0,170)"/></g><path d=" M 369.718 147.67 L 369.718 147.67 L 367.345 147.67 L 367.345 147.67 Q 365.92 147.67 365.154 146.811 L 365.154 146.811 L 365.154 146.811 Q 364.387 145.953 364.387 144.31 L 364.387 144.31 L 364.387 143.47 L 364.387 143.47 Q 364.387 142.886 364.825 142.886 L 364.825 142.886 L 365.154 142.886 L 365.154 142.886 Q 365.628 142.886 365.628 143.47 L 365.628 143.47 L 365.628 144.273 L 365.628 144.273 Q 365.628 146.355 367.345 146.355 L 367.345 146.355 L 369.718 146.355 L 369.718 146.355 Q 371.471 146.355 371.471 144.273 L 371.471 144.273 L 371.471 143.251 L 371.471 143.251 Q 371.471 142.447 370.85 141.9 L 370.85 141.9 L 370.85 141.9 Q 370.23 141.352 369.207 141.096 L 369.207 141.096 L 369.207 141.096 Q 368.404 140.914 367.6 140.713 L 367.6 140.713 L 367.6 140.713 Q 366.797 140.512 366.067 140.11 L 366.067 140.11 L 366.067 140.11 Q 365.336 139.709 364.861 139.106 L 364.861 139.106 L 364.861 139.106 Q 364.387 138.503 364.387 137.554 L 364.387 137.554 L 364.387 136.276 L 364.387 136.276 Q 364.387 134.742 365.172 133.829 L 365.172 133.829 L 365.172 133.829 Q 365.957 132.916 367.345 132.916 L 367.345 132.916 L 369.718 132.916 L 369.718 132.916 Q 371.106 132.916 371.891 133.829 L 371.891 133.829 L 371.891 133.829 Q 372.676 134.742 372.676 136.276 L 372.676 136.276 L 372.676 136.86 L 372.676 136.86 Q 372.676 137.481 372.202 137.481 L 372.202 137.481 L 371.946 137.481 L 371.946 137.481 Q 371.471 137.481 371.471 136.86 L 371.471 136.86 L 371.471 136.276 L 371.471 136.276 Q 371.471 134.231 369.718 134.231 L 369.718 134.231 L 367.345 134.231 L 367.345 134.231 Q 365.628 134.231 365.628 136.276 L 365.628 136.276 L 365.628 137.517 L 365.628 137.517 Q 365.628 138.138 366.103 138.631 L 366.103 138.631 L 366.103 138.631 Q 366.578 139.124 367.819 139.416 L 367.819 139.416 L 367.819 139.416 Q 368.659 139.599 369.444 139.8 L 369.444 139.8 L 369.444 139.8 Q 370.23 140.001 370.997 140.439 L 370.997 140.439 L 370.997 140.439 Q 371.727 140.841 372.202 141.48 L 372.202 141.48 L 372.202 141.48 Q 372.676 142.119 372.676 143.178 L 372.676 143.178 L 372.676 144.31 L 372.676 144.31 Q 372.676 145.953 371.909 146.811 L 371.909 146.811 L 371.909 146.811 Q 371.143 147.67 369.718 147.67 Z  M 384.034 133.61 L 380.126 142.009 L 380.126 147.158 L 380.126 147.158 Q 380.126 147.67 379.615 147.67 L 379.615 147.67 L 379.359 147.67 L 379.359 147.67 Q 379.104 147.67 379.012 147.505 L 379.012 147.505 L 379.012 147.505 Q 378.921 147.341 378.921 147.158 L 378.921 147.158 L 378.921 142.009 L 374.977 133.646 L 374.977 133.646 Q 374.868 133.427 374.922 133.172 L 374.922 133.172 L 374.922 133.172 Q 374.977 132.916 375.342 132.916 L 375.342 132.916 L 375.707 132.916 L 375.707 132.916 Q 375.963 132.916 376.146 133.172 L 376.146 133.172 L 376.255 133.318 L 379.505 140.439 L 382.792 133.281 L 382.792 133.281 Q 382.865 133.135 382.975 133.062 L 382.975 133.062 L 382.975 133.062 Q 383.048 132.989 383.102 132.953 L 383.102 132.953 L 383.102 132.953 Q 383.157 132.916 383.34 132.916 L 383.34 132.916 L 383.632 132.916 L 383.632 132.916 Q 383.997 132.916 384.052 133.135 L 384.052 133.135 L 384.052 133.135 Q 384.107 133.354 384.034 133.61 L 384.034 133.61 L 384.034 133.61 Z  M 394.661 147.67 L 394.661 147.67 L 394.442 147.67 L 394.442 147.67 Q 394.149 147.67 393.93 147.341 L 393.93 147.341 L 387.868 135.911 L 387.868 147.158 L 387.868 147.158 Q 387.868 147.341 387.74 147.505 L 387.74 147.505 L 387.74 147.505 Q 387.613 147.67 387.357 147.67 L 387.357 147.67 L 387.101 147.67 L 387.101 147.67 Q 386.59 147.67 386.59 147.158 L 386.59 147.158 L 386.59 133.464 L 386.59 133.464 Q 386.59 132.916 387.101 132.916 L 387.101 132.916 L 387.357 132.916 L 387.357 132.916 Q 387.722 132.916 387.722 133.135 L 387.722 133.135 L 393.93 144.602 L 393.93 133.464 L 393.93 133.464 Q 393.93 133.281 394.022 133.099 L 394.022 133.099 L 394.022 133.099 Q 394.113 132.916 394.368 132.916 L 394.368 132.916 L 394.661 132.916 L 394.661 132.916 Q 394.916 132.916 395.026 133.099 L 395.026 133.099 L 395.026 133.099 Q 395.135 133.281 395.135 133.464 L 395.135 133.464 L 395.135 147.158 L 395.135 147.158 Q 395.135 147.341 395.026 147.505 L 395.026 147.505 L 395.026 147.505 Q 394.916 147.67 394.661 147.67 Z  M 405.105 134.231 L 405.105 134.231 L 402.22 134.231 L 402.22 147.158 L 402.22 147.158 Q 402.22 147.341 402.092 147.505 L 402.092 147.505 L 402.092 147.505 Q 401.964 147.67 401.709 147.67 L 401.709 147.67 L 401.49 147.67 L 401.49 147.67 Q 401.234 147.67 401.124 147.505 L 401.124 147.505 L 401.124 147.505 Q 401.015 147.341 401.015 147.158 L 401.015 147.158 L 401.015 134.231 L 398.093 134.231 L 398.093 134.231 Q 397.911 134.231 397.765 134.121 L 397.765 134.121 L 397.765 134.121 Q 397.619 134.012 397.619 133.72 L 397.619 133.72 L 397.619 133.427 L 397.619 133.427 Q 397.619 132.916 398.093 132.916 L 398.093 132.916 L 405.105 132.916 L 405.105 132.916 Q 405.58 132.916 405.58 133.427 L 405.58 133.427 L 405.58 133.72 L 405.58 133.72 Q 405.58 134.231 405.105 134.231 Z  M 416.681 147.67 L 416.681 147.67 L 416.353 147.67 L 416.353 147.67 Q 416.134 147.67 416.024 147.524 L 416.024 147.524 L 416.024 147.524 Q 415.914 147.377 415.841 147.158 L 415.841 147.158 L 414.746 143.726 L 409.487 143.726 L 408.319 147.231 L 408.319 147.231 Q 408.136 147.67 407.807 147.67 L 407.807 147.67 L 407.552 147.67 L 407.552 147.67 Q 407.296 147.67 407.168 147.451 L 407.168 147.451 L 407.168 147.451 Q 407.04 147.231 407.113 147.012 L 407.113 147.012 L 411.35 133.427 L 411.459 133.208 L 411.459 133.208 Q 411.496 133.172 411.496 133.153 L 411.496 133.153 L 411.496 133.153 Q 411.496 133.135 411.532 133.099 L 411.532 133.099 L 411.532 133.099 Q 411.678 132.916 411.861 132.916 L 411.861 132.916 L 412.336 132.916 L 412.336 132.916 Q 412.701 132.916 412.883 133.354 L 412.883 133.354 L 417.12 147.012 L 417.12 147.012 Q 417.193 147.231 417.065 147.451 L 417.065 147.451 L 417.065 147.451 Q 416.937 147.67 416.681 147.67 Z  M 414.271 142.301 L 412.08 134.888 L 412.08 134.888 Q 411.496 137.116 410.93 139.051 L 410.93 139.051 L 410.93 139.051 Q 410.364 140.987 409.962 142.301 L 409.962 142.301 L 414.271 142.301 L 414.271 142.301 Z  M 427.564 147.67 L 427.564 147.67 L 427.235 147.67 L 427.235 147.67 Q 427.162 147.67 427.016 147.615 L 427.016 147.615 L 427.016 147.615 Q 426.87 147.56 426.688 147.377 L 426.688 147.377 L 423.437 141.023 L 420.187 147.377 L 420.187 147.377 Q 420.005 147.56 419.859 147.615 L 419.859 147.615 L 419.859 147.615 Q 419.712 147.67 419.639 147.67 L 419.639 147.67 L 419.311 147.67 L 419.311 147.67 Q 419.019 147.67 418.909 147.432 L 418.909 147.432 L 418.909 147.432 Q 418.799 147.195 418.982 146.903 L 418.982 146.903 L 422.67 139.891 L 419.201 133.683 L 419.201 133.683 Q 419.055 133.354 419.11 133.135 L 419.11 133.135 L 419.11 133.135 Q 419.165 132.916 419.566 132.916 L 419.566 132.916 L 419.859 132.916 L 419.859 132.916 Q 420.224 132.916 420.443 133.318 L 420.443 133.318 L 423.437 138.723 L 426.468 133.318 L 426.468 133.318 Q 426.614 133.099 426.688 133.026 L 426.688 133.026 L 426.688 133.026 Q 426.797 132.916 426.98 132.916 L 426.98 132.916 L 427.308 132.916 L 427.308 132.916 Q 427.674 132.916 427.747 133.135 L 427.747 133.135 L 427.747 133.135 Q 427.82 133.354 427.637 133.683 L 427.637 133.683 L 424.204 139.891 L 427.966 146.976 L 427.966 147.158 L 427.966 147.158 Q 427.966 147.67 427.564 147.67 Z  M 256.437 147.67 L 256.437 147.67 L 256.109 147.67 L 256.109 147.67 Q 255.89 147.67 255.78 147.524 L 255.78 147.524 L 255.78 147.524 Q 255.671 147.377 255.598 147.158 L 255.598 147.158 L 254.502 143.726 L 249.243 143.726 L 248.075 147.231 L 248.075 147.231 Q 247.892 147.67 247.563 147.67 L 247.563 147.67 L 247.308 147.67 L 247.308 147.67 Q 247.052 147.67 246.924 147.451 L 246.924 147.451 L 246.924 147.451 Q 246.797 147.231 246.87 147.012 L 246.87 147.012 L 251.106 133.427 L 251.215 133.208 L 251.215 133.208 Q 251.252 133.172 251.252 133.153 L 251.252 133.153 L 251.252 133.153 Q 251.252 133.135 251.288 133.099 L 251.288 133.099 L 251.288 133.099 Q 251.434 132.916 251.617 132.916 L 251.617 132.916 L 252.092 132.916 L 252.092 132.916 Q 252.457 132.916 252.64 133.354 L 252.64 133.354 L 256.876 147.012 L 256.876 147.012 Q 256.949 147.231 256.821 147.451 L 256.821 147.451 L 256.821 147.451 Q 256.693 147.67 256.437 147.67 Z  M 254.027 142.301 L 251.836 134.888 L 251.836 134.888 Q 251.252 137.116 250.686 139.051 L 250.686 139.051 L 250.686 139.051 Q 250.12 140.987 249.718 142.301 L 249.718 142.301 L 254.027 142.301 L 254.027 142.301 Z  M 265.896 147.67 L 265.896 147.67 L 259.797 147.67 L 259.797 147.67 Q 259.322 147.67 259.322 147.158 L 259.322 147.158 L 259.322 133.464 L 259.322 133.464 Q 259.322 133.245 259.432 133.08 L 259.432 133.08 L 259.432 133.08 Q 259.542 132.916 259.797 132.916 L 259.797 132.916 L 260.053 132.916 L 260.053 132.916 Q 260.345 132.916 260.455 133.099 L 260.455 133.099 L 260.455 133.099 Q 260.564 133.281 260.564 133.464 L 260.564 133.464 L 260.564 146.318 L 265.896 146.318 L 265.896 146.318 Q 266.078 146.318 266.206 146.483 L 266.206 146.483 L 266.206 146.483 Q 266.334 146.647 266.334 146.83 L 266.334 146.83 L 266.334 147.158 L 266.334 147.158 Q 266.334 147.414 266.206 147.542 L 266.206 147.542 L 266.206 147.542 Q 266.078 147.67 265.896 147.67 Z  M 275.683 134.231 L 275.683 134.231 L 272.798 134.231 L 272.798 147.158 L 272.798 147.158 Q 272.798 147.341 272.67 147.505 L 272.67 147.505 L 272.67 147.505 Q 272.542 147.67 272.287 147.67 L 272.287 147.67 L 272.067 147.67 L 272.067 147.67 Q 271.812 147.67 271.702 147.505 L 271.702 147.505 L 271.702 147.505 Q 271.593 147.341 271.593 147.158 L 271.593 147.158 L 271.593 134.231 L 268.671 134.231 L 268.671 134.231 Q 268.489 134.231 268.343 134.121 L 268.343 134.121 L 268.343 134.121 Q 268.196 134.012 268.196 133.72 L 268.196 133.72 L 268.196 133.427 L 268.196 133.427 Q 268.196 132.916 268.671 132.916 L 268.671 132.916 L 275.683 132.916 L 275.683 132.916 Q 276.158 132.916 276.158 133.427 L 276.158 133.427 L 276.158 133.72 L 276.158 133.72 Q 276.158 134.231 275.683 134.231 Z  M 284.995 147.67 L 284.995 147.67 L 279.152 147.67 L 279.152 147.67 Q 278.714 147.67 278.714 147.158 L 278.714 147.158 L 278.714 133.464 L 278.714 133.464 Q 278.714 132.916 279.152 132.916 L 279.152 132.916 L 284.995 132.916 L 284.995 132.916 Q 285.47 132.916 285.47 133.427 L 285.47 133.427 L 285.47 133.72 L 285.47 133.72 Q 285.47 133.975 285.305 134.103 L 285.305 134.103 L 285.305 134.103 Q 285.141 134.231 284.995 134.231 L 284.995 134.231 L 279.882 134.231 L 279.882 139.489 L 284.52 139.489 L 284.52 139.489 Q 284.666 139.489 284.831 139.617 L 284.831 139.617 L 284.831 139.617 Q 284.995 139.745 284.995 140.037 L 284.995 140.037 L 284.995 140.293 L 284.995 140.293 Q 284.995 140.804 284.52 140.804 L 284.52 140.804 L 279.882 140.804 L 279.882 146.355 L 284.995 146.355 L 284.995 146.355 Q 285.47 146.355 285.47 146.866 L 285.47 146.866 L 285.47 147.158 L 285.47 147.158 Q 285.47 147.414 285.305 147.542 L 285.305 147.542 L 285.305 147.542 Q 285.141 147.67 284.995 147.67 Z  M 296.352 147.67 L 296.352 147.67 L 295.951 147.67 L 295.951 147.67 Q 295.585 147.67 295.476 147.377 L 295.476 147.377 L 293.139 141.754 L 289.889 141.754 L 289.889 147.158 L 289.889 147.158 Q 289.889 147.67 289.341 147.67 L 289.341 147.67 L 289.122 147.67 L 289.122 147.67 Q 288.939 147.67 288.775 147.578 L 288.775 147.578 L 288.775 147.578 Q 288.61 147.487 288.61 147.158 L 288.61 147.158 L 288.61 133.427 L 288.61 133.427 Q 288.61 132.916 289.122 132.916 L 289.122 132.916 L 293.504 132.916 L 293.504 132.916 Q 294.928 132.916 295.713 133.774 L 295.713 133.774 L 295.713 133.774 Q 296.498 134.632 296.498 136.276 L 296.498 136.276 L 296.498 138.394 L 296.498 138.394 Q 296.498 139.599 296.005 140.384 L 296.005 140.384 L 296.005 140.384 Q 295.512 141.169 294.38 141.681 L 294.38 141.681 L 296.681 146.976 L 296.681 146.976 Q 296.718 147.122 296.736 147.396 L 296.736 147.396 L 296.736 147.396 Q 296.754 147.67 296.352 147.67 Z  M 295.293 138.394 L 295.293 136.276 L 295.293 136.276 Q 295.293 134.194 293.504 134.194 L 293.504 134.194 L 289.889 134.194 L 289.889 140.439 L 293.504 140.439 L 293.504 140.439 Q 295.293 140.439 295.293 138.394 L 295.293 138.394 L 295.293 138.394 Z  M 307.819 147.67 L 307.819 147.67 L 307.6 147.67 L 307.6 147.67 Q 307.308 147.67 307.089 147.341 L 307.089 147.341 L 301.027 135.911 L 301.027 147.158 L 301.027 147.158 Q 301.027 147.341 300.899 147.505 L 300.899 147.505 L 300.899 147.505 Q 300.771 147.67 300.515 147.67 L 300.515 147.67 L 300.26 147.67 L 300.26 147.67 Q 299.749 147.67 299.749 147.158 L 299.749 147.158 L 299.749 133.464 L 299.749 133.464 Q 299.749 132.916 300.26 132.916 L 300.26 132.916 L 300.515 132.916 L 300.515 132.916 Q 300.881 132.916 300.881 133.135 L 300.881 133.135 L 307.089 144.602 L 307.089 133.464 L 307.089 133.464 Q 307.089 133.281 307.18 133.099 L 307.18 133.099 L 307.18 133.099 Q 307.271 132.916 307.527 132.916 L 307.527 132.916 L 307.819 132.916 L 307.819 132.916 Q 308.075 132.916 308.184 133.099 L 308.184 133.099 L 308.184 133.099 Q 308.294 133.281 308.294 133.464 L 308.294 133.464 L 308.294 147.158 L 308.294 147.158 Q 308.294 147.341 308.184 147.505 L 308.184 147.505 L 308.184 147.505 Q 308.075 147.67 307.819 147.67 Z  M 320.382 147.67 L 320.382 147.67 L 320.053 147.67 L 320.053 147.67 Q 319.834 147.67 319.724 147.524 L 319.724 147.524 L 319.724 147.524 Q 319.615 147.377 319.542 147.158 L 319.542 147.158 L 318.446 143.726 L 313.187 143.726 L 312.019 147.231 L 312.019 147.231 Q 311.836 147.67 311.508 147.67 L 311.508 147.67 L 311.252 147.67 L 311.252 147.67 Q 310.996 147.67 310.869 147.451 L 310.869 147.451 L 310.869 147.451 Q 310.741 147.231 310.814 147.012 L 310.814 147.012 L 315.05 133.427 L 315.159 133.208 L 315.159 133.208 Q 315.196 133.172 315.196 133.153 L 315.196 133.153 L 315.196 133.153 Q 315.196 133.135 315.233 133.099 L 315.233 133.099 L 315.233 133.099 Q 315.379 132.916 315.561 132.916 L 315.561 132.916 L 316.036 132.916 L 316.036 132.916 Q 316.401 132.916 316.584 133.354 L 316.584 133.354 L 320.82 147.012 L 320.82 147.012 Q 320.893 147.231 320.765 147.451 L 320.765 147.451 L 320.765 147.451 Q 320.637 147.67 320.382 147.67 Z  M 317.971 142.301 L 315.78 134.888 L 315.78 134.888 Q 315.196 137.116 314.63 139.051 L 314.63 139.051 L 314.63 139.051 Q 314.064 140.987 313.662 142.301 L 313.662 142.301 L 317.971 142.301 L 317.971 142.301 Z  M 329.95 134.231 L 329.95 134.231 L 327.065 134.231 L 327.065 147.158 L 327.065 147.158 Q 327.065 147.341 326.937 147.505 L 326.937 147.505 L 326.937 147.505 Q 326.809 147.67 326.553 147.67 L 326.553 147.67 L 326.334 147.67 L 326.334 147.67 Q 326.079 147.67 325.969 147.505 L 325.969 147.505 L 325.969 147.505 Q 325.859 147.341 325.859 147.158 L 325.859 147.158 L 325.859 134.231 L 322.938 134.231 L 322.938 134.231 Q 322.755 134.231 322.609 134.121 L 322.609 134.121 L 322.609 134.121 Q 322.463 134.012 322.463 133.72 L 322.463 133.72 L 322.463 133.427 L 322.463 133.427 Q 322.463 132.916 322.938 132.916 L 322.938 132.916 L 329.95 132.916 L 329.95 132.916 Q 330.424 132.916 330.424 133.427 L 330.424 133.427 L 330.424 133.72 L 330.424 133.72 Q 330.424 134.231 329.95 134.231 Z  M 333.273 147.67 L 333.273 147.67 L 332.981 147.67 L 332.981 147.67 Q 332.798 147.67 332.688 147.487 L 332.688 147.487 L 332.688 147.487 Q 332.579 147.304 332.579 147.122 L 332.579 147.122 L 332.579 133.464 L 332.579 133.464 Q 332.579 132.916 332.981 132.916 L 332.981 132.916 L 333.273 132.916 L 333.273 132.916 Q 333.747 132.916 333.747 133.464 L 333.747 133.464 L 333.747 147.122 L 333.747 147.122 Q 333.747 147.67 333.273 147.67 Z  M 345.397 133.5 L 341.526 147.231 L 341.526 147.231 Q 341.453 147.414 341.343 147.542 L 341.343 147.542 L 341.343 147.542 Q 341.234 147.67 341.051 147.67 L 341.051 147.67 L 340.54 147.67 L 340.54 147.67 Q 340.211 147.67 340.102 147.377 L 340.102 147.377 L 340.102 147.377 Q 340.102 147.304 340.083 147.286 L 340.083 147.286 L 340.083 147.286 Q 340.065 147.268 340.065 147.231 L 340.065 147.231 L 336.158 133.5 L 336.158 133.5 Q 336.085 133.318 336.176 133.117 L 336.176 133.117 L 336.176 133.117 Q 336.267 132.916 336.559 132.916 L 336.559 132.916 L 336.888 132.916 L 336.888 132.916 Q 337.107 132.916 337.18 133.044 L 337.18 133.044 L 337.18 133.044 Q 337.253 133.172 337.326 133.354 L 337.326 133.354 L 340.796 145.259 L 344.192 133.427 L 344.301 133.208 L 344.301 133.135 L 344.338 133.099 L 344.411 133.026 L 344.411 133.026 Q 344.484 132.916 344.667 132.916 L 344.667 132.916 L 345.032 132.916 L 345.032 132.916 Q 345.324 132.916 345.397 133.117 L 345.397 133.117 L 345.397 133.117 Q 345.47 133.318 345.397 133.5 L 345.397 133.5 L 345.397 133.5 Z  M 354.417 147.67 L 354.417 147.67 L 348.574 147.67 L 348.574 147.67 Q 348.136 147.67 348.136 147.158 L 348.136 147.158 L 348.136 133.464 L 348.136 133.464 Q 348.136 132.916 348.574 132.916 L 348.574 132.916 L 354.417 132.916 L 354.417 132.916 Q 354.892 132.916 354.892 133.427 L 354.892 133.427 L 354.892 133.72 L 354.892 133.72 Q 354.892 133.975 354.727 134.103 L 354.727 134.103 L 354.727 134.103 Q 354.563 134.231 354.417 134.231 L 354.417 134.231 L 349.304 134.231 L 349.304 139.489 L 353.942 139.489 L 353.942 139.489 Q 354.088 139.489 354.253 139.617 L 354.253 139.617 L 354.253 139.617 Q 354.417 139.745 354.417 140.037 L 354.417 140.037 L 354.417 140.293 L 354.417 140.293 Q 354.417 140.804 353.942 140.804 L 353.942 140.804 L 349.304 140.804 L 349.304 146.355 L 354.417 146.355 L 354.417 146.355 Q 354.892 146.355 354.892 146.866 L 354.892 146.866 L 354.892 147.158 L 354.892 147.158 Q 354.892 147.414 354.727 147.542 L 354.727 147.542 L 354.727 147.542 Q 354.563 147.67 354.417 147.67 Z  M 147.721 134.231 L 147.721 134.231 L 144.836 134.231 L 144.836 147.158 L 144.836 147.158 Q 144.836 147.341 144.709 147.505 L 144.709 147.505 L 144.709 147.505 Q 144.581 147.67 144.325 147.67 L 144.325 147.67 L 144.106 147.67 L 144.106 147.67 Q 143.85 147.67 143.741 147.505 L 143.741 147.505 L 143.741 147.505 Q 143.631 147.341 143.631 147.158 L 143.631 147.158 L 143.631 134.231 L 140.71 134.231 L 140.71 134.231 Q 140.527 134.231 140.381 134.121 L 140.381 134.121 L 140.381 134.121 Q 140.235 134.012 140.235 133.72 L 140.235 133.72 L 140.235 133.427 L 140.235 133.427 Q 140.235 132.916 140.71 132.916 L 140.71 132.916 L 147.721 132.916 L 147.721 132.916 Q 148.196 132.916 148.196 133.427 L 148.196 133.427 L 148.196 133.72 L 148.196 133.72 Q 148.196 134.231 147.721 134.231 Z  M 157.034 147.67 L 157.034 147.67 L 151.191 147.67 L 151.191 147.67 Q 150.752 147.67 150.752 147.158 L 150.752 147.158 L 150.752 133.464 L 150.752 133.464 Q 150.752 132.916 151.191 132.916 L 151.191 132.916 L 157.034 132.916 L 157.034 132.916 Q 157.508 132.916 157.508 133.427 L 157.508 133.427 L 157.508 133.72 L 157.508 133.72 Q 157.508 133.975 157.344 134.103 L 157.344 134.103 L 157.344 134.103 Q 157.18 134.231 157.034 134.231 L 157.034 134.231 L 151.921 134.231 L 151.921 139.489 L 156.559 139.489 L 156.559 139.489 Q 156.705 139.489 156.869 139.617 L 156.869 139.617 L 156.869 139.617 Q 157.034 139.745 157.034 140.037 L 157.034 140.037 L 157.034 140.293 L 157.034 140.293 Q 157.034 140.804 156.559 140.804 L 156.559 140.804 L 151.921 140.804 L 151.921 146.355 L 157.034 146.355 L 157.034 146.355 Q 157.508 146.355 157.508 146.866 L 157.508 146.866 L 157.508 147.158 L 157.508 147.158 Q 157.508 147.414 157.344 147.542 L 157.344 147.542 L 157.344 147.542 Q 157.18 147.67 157.034 147.67 Z  M 168.391 147.67 L 168.391 147.67 L 167.989 147.67 L 167.989 147.67 Q 167.624 147.67 167.514 147.377 L 167.514 147.377 L 165.177 141.754 L 161.927 141.754 L 161.927 147.158 L 161.927 147.158 Q 161.927 147.67 161.379 147.67 L 161.379 147.67 L 161.16 147.67 L 161.16 147.67 Q 160.978 147.67 160.813 147.578 L 160.813 147.578 L 160.813 147.578 Q 160.649 147.487 160.649 147.158 L 160.649 147.158 L 160.649 133.427 L 160.649 133.427 Q 160.649 132.916 161.16 132.916 L 161.16 132.916 L 165.542 132.916 L 165.542 132.916 Q 166.967 132.916 167.752 133.774 L 167.752 133.774 L 167.752 133.774 Q 168.537 134.632 168.537 136.276 L 168.537 136.276 L 168.537 138.394 L 168.537 138.394 Q 168.537 139.599 168.044 140.384 L 168.044 140.384 L 168.044 140.384 Q 167.551 141.169 166.419 141.681 L 166.419 141.681 L 168.72 146.976 L 168.72 146.976 Q 168.756 147.122 168.774 147.396 L 168.774 147.396 L 168.774 147.396 Q 168.793 147.67 168.391 147.67 Z  M 167.332 138.394 L 167.332 136.276 L 167.332 136.276 Q 167.332 134.194 165.542 134.194 L 165.542 134.194 L 161.927 134.194 L 161.927 140.439 L 165.542 140.439 L 165.542 140.439 Q 167.332 140.439 167.332 138.394 L 167.332 138.394 L 167.332 138.394 Z  M 179.42 147.67 L 179.42 147.67 L 179.018 147.67 L 179.018 147.67 Q 178.653 147.67 178.543 147.377 L 178.543 147.377 L 176.206 141.754 L 172.956 141.754 L 172.956 147.158 L 172.956 147.158 Q 172.956 147.67 172.408 147.67 L 172.408 147.67 L 172.189 147.67 L 172.189 147.67 Q 172.006 147.67 171.842 147.578 L 171.842 147.578 L 171.842 147.578 Q 171.678 147.487 171.678 147.158 L 171.678 147.158 L 171.678 133.427 L 171.678 133.427 Q 171.678 132.916 172.189 132.916 L 172.189 132.916 L 176.571 132.916 L 176.571 132.916 Q 177.995 132.916 178.78 133.774 L 178.78 133.774 L 178.78 133.774 Q 179.566 134.632 179.566 136.276 L 179.566 136.276 L 179.566 138.394 L 179.566 138.394 Q 179.566 139.599 179.073 140.384 L 179.073 140.384 L 179.073 140.384 Q 178.58 141.169 177.448 141.681 L 177.448 141.681 L 179.748 146.976 L 179.748 146.976 Q 179.785 147.122 179.803 147.396 L 179.803 147.396 L 179.803 147.396 Q 179.821 147.67 179.42 147.67 Z  M 178.361 138.394 L 178.361 136.276 L 178.361 136.276 Q 178.361 134.194 176.571 134.194 L 176.571 134.194 L 172.956 134.194 L 172.956 140.439 L 176.571 140.439 L 176.571 140.439 Q 178.361 140.439 178.361 138.394 L 178.361 138.394 L 178.361 138.394 Z  M 191.507 147.67 L 191.507 147.67 L 191.179 147.67 L 191.179 147.67 Q 190.959 147.67 190.85 147.524 L 190.85 147.524 L 190.85 147.524 Q 190.74 147.377 190.667 147.158 L 190.667 147.158 L 189.572 143.726 L 184.313 143.726 L 183.144 147.231 L 183.144 147.231 Q 182.962 147.67 182.633 147.67 L 182.633 147.67 L 182.378 147.67 L 182.378 147.67 Q 182.122 147.67 181.994 147.451 L 181.994 147.451 L 181.994 147.451 Q 181.866 147.231 181.939 147.012 L 181.939 147.012 L 186.176 133.427 L 186.285 133.208 L 186.285 133.208 Q 186.322 133.172 186.322 133.153 L 186.322 133.153 L 186.322 133.153 Q 186.322 133.135 186.358 133.099 L 186.358 133.099 L 186.358 133.099 Q 186.504 132.916 186.687 132.916 L 186.687 132.916 L 187.162 132.916 L 187.162 132.916 Q 187.527 132.916 187.709 133.354 L 187.709 133.354 L 191.945 147.012 L 191.945 147.012 Q 192.019 147.231 191.891 147.451 L 191.891 147.451 L 191.891 147.451 Q 191.763 147.67 191.507 147.67 Z  M 189.097 142.301 L 186.906 134.888 L 186.906 134.888 Q 186.322 137.116 185.756 139.051 L 185.756 139.051 L 185.756 139.051 Q 185.19 140.987 184.788 142.301 L 184.788 142.301 L 189.097 142.301 L 189.097 142.301 Z  M 200.82 134.231 L 200.82 134.231 L 195.707 134.231 L 195.707 139.709 L 200.308 139.709 L 200.308 139.709 Q 200.454 139.709 200.619 139.836 L 200.619 139.836 L 200.619 139.836 Q 200.783 139.964 200.783 140.183 L 200.783 140.183 L 200.783 140.439 L 200.783 140.439 Q 200.783 140.768 200.619 140.877 L 200.619 140.877 L 200.619 140.877 Q 200.454 140.987 200.308 140.987 L 200.308 140.987 L 195.707 140.987 L 195.707 147.158 L 195.707 147.158 Q 195.707 147.341 195.597 147.505 L 195.597 147.505 L 195.597 147.505 Q 195.488 147.67 195.232 147.67 L 195.232 147.67 L 194.977 147.67 L 194.977 147.67 Q 194.502 147.67 194.502 147.158 L 194.502 147.158 L 194.502 133.464 L 194.502 133.464 Q 194.502 133.245 194.611 133.08 L 194.611 133.08 L 194.611 133.08 Q 194.721 132.916 194.977 132.916 L 194.977 132.916 L 200.82 132.916 L 200.82 132.916 Q 201.294 132.916 201.294 133.427 L 201.294 133.427 L 201.294 133.72 L 201.294 133.72 Q 201.294 133.975 201.13 134.103 L 201.13 134.103 L 201.13 134.103 Q 200.966 134.231 200.82 134.231 Z  M 209.438 147.67 L 209.438 147.67 L 206.955 147.67 L 206.955 147.67 Q 205.567 147.67 204.8 146.811 L 204.8 146.811 L 204.8 146.811 Q 204.033 145.953 204.033 144.31 L 204.033 144.31 L 204.033 136.276 L 204.033 136.276 Q 204.033 134.742 204.8 133.829 L 204.8 133.829 L 204.8 133.829 Q 205.567 132.916 206.955 132.916 L 206.955 132.916 L 209.438 132.916 L 209.438 132.916 Q 210.826 132.916 211.629 133.829 L 211.629 133.829 L 211.629 133.829 Q 212.432 134.742 212.432 136.276 L 212.432 136.276 L 212.432 144.31 L 212.432 144.31 Q 212.432 145.953 211.647 146.811 L 211.647 146.811 L 211.647 146.811 Q 210.862 147.67 209.438 147.67 Z  M 211.191 144.273 L 211.191 136.276 L 211.191 136.276 Q 211.191 134.231 209.438 134.231 L 209.438 134.231 L 206.955 134.231 L 206.955 134.231 Q 205.238 134.231 205.238 136.276 L 205.238 136.276 L 205.238 144.273 L 205.238 144.273 Q 205.238 146.355 206.955 146.355 L 206.955 146.355 L 209.438 146.355 L 209.438 146.355 Q 211.191 146.355 211.191 144.273 L 211.191 144.273 L 211.191 144.273 Z  M 223.278 147.67 L 223.278 147.67 L 222.877 147.67 L 222.877 147.67 Q 222.512 147.67 222.402 147.377 L 222.402 147.377 L 220.065 141.754 L 216.815 141.754 L 216.815 147.158 L 216.815 147.158 Q 216.815 147.67 216.267 147.67 L 216.267 147.67 L 216.048 147.67 L 216.048 147.67 Q 215.865 147.67 215.701 147.578 L 215.701 147.578 L 215.701 147.578 Q 215.537 147.487 215.537 147.158 L 215.537 147.158 L 215.537 133.427 L 215.537 133.427 Q 215.537 132.916 216.048 132.916 L 216.048 132.916 L 220.43 132.916 L 220.43 132.916 Q 221.854 132.916 222.639 133.774 L 222.639 133.774 L 222.639 133.774 Q 223.425 134.632 223.425 136.276 L 223.425 136.276 L 223.425 138.394 L 223.425 138.394 Q 223.425 139.599 222.932 140.384 L 222.932 140.384 L 222.932 140.384 Q 222.439 141.169 221.306 141.681 L 221.306 141.681 L 223.607 146.976 L 223.607 146.976 Q 223.644 147.122 223.662 147.396 L 223.662 147.396 L 223.662 147.396 Q 223.68 147.67 223.278 147.67 Z  M 222.219 138.394 L 222.219 136.276 L 222.219 136.276 Q 222.219 134.194 220.43 134.194 L 220.43 134.194 L 216.815 134.194 L 216.815 140.439 L 220.43 140.439 L 220.43 140.439 Q 222.219 140.439 222.219 138.394 L 222.219 138.394 L 222.219 138.394 Z  M 237.265 147.67 L 237.265 147.67 L 236.973 147.67 L 236.973 147.67 Q 236.498 147.67 236.498 147.158 L 236.498 147.158 L 236.498 135.984 L 232.956 144.273 L 232.956 144.273 Q 232.773 144.602 232.372 144.602 L 232.372 144.602 L 232.043 144.602 L 232.043 144.602 Q 231.641 144.602 231.495 144.273 L 231.495 144.273 L 227.953 135.911 L 227.953 147.158 L 227.953 147.158 Q 227.953 147.341 227.843 147.505 L 227.843 147.505 L 227.843 147.505 Q 227.734 147.67 227.478 147.67 L 227.478 147.67 L 227.186 147.67 L 227.186 147.67 Q 226.675 147.67 226.675 147.158 L 226.675 147.158 L 226.675 133.464 L 226.675 133.464 Q 226.675 132.916 227.186 132.916 L 227.186 132.916 L 227.734 132.916 L 227.734 132.916 Q 228.062 132.916 228.172 133.208 L 228.172 133.208 L 232.226 142.703 L 236.206 133.208 L 236.206 133.208 Q 236.316 132.916 236.681 132.916 L 236.681 132.916 L 237.265 132.916 L 237.265 132.916 Q 237.521 132.916 237.63 133.099 L 237.63 133.099 L 237.63 133.099 Q 237.74 133.281 237.74 133.464 L 237.74 133.464 L 237.74 147.158 L 237.74 147.158 Q 237.74 147.341 237.63 147.505 L 237.63 147.505 L 237.63 147.505 Q 237.521 147.67 237.265 147.67 Z " fill="rgb(0,0,0)"/></g></svg>