<?xml version="1.0" encoding="UTF-8" standalone="no"?><!-- Generator: Gravit.io --><svg xmlns="http://www.w3.org/2000/svg" xmlns:xlink="http://www.w3.org/1999/xlink" style="isolation:isolate" viewBox="0 0 637.795 155.906" width="637.795pt" height="155.906pt"><g><g><path d=" M 144.939 72.811 L 140.267 72.811 L 140.267 68.103 L 144.939 68.103 L 144.939 72.811 L 144.939 72.811 Z  M 150.181 60.507 L 146.686 60.507 L 146.686 57.012 L 150.181 57.012 L 150.181 60.507 L 150.181 60.507 Z  M 191.086 60.507 L 187.591 60.507 L 187.591 57.012 L 191.086 57.012 L 191.086 60.507 L 191.086 60.507 Z  M 145.509 61.684 L 151.358 61.684 L 151.358 55.835 L 145.509 55.835 L 145.509 61.684 L 145.509 61.684 Z  M 144.939 49.416 L 140.267 49.416 L 140.267 44.744 L 144.939 44.744 L 144.939 49.416 L 144.939 49.416 Z  M 156.03 42.997 L 152.535 42.997 L 152.535 39.502 L 156.03 39.502 L 156.03 42.997 L 156.03 42.997 Z  M 179.995 43.567 L 175.323 43.567 L 175.323 38.895 L 179.995 38.895 L 179.995 43.567 L 179.995 43.567 Z  M 186.415 125.948 L 145.509 125.948 L 145.509 120.135 L 139.696 120.135 L 139.696 73.381 L 145.509 73.381 L 145.509 67.533 L 139.696 67.533 L 139.696 50.022 L 145.509 50.022 L 145.509 38.325 L 151.358 38.325 L 151.358 44.173 L 157.207 44.173 L 157.207 38.325 L 174.753 38.325 L 174.753 44.173 L 180.566 44.173 L 180.566 38.325 L 186.415 38.325 L 186.415 44.173 L 192.263 44.173 L 192.263 55.835 L 186.415 55.835 L 186.415 61.684 L 174.753 61.684 L 174.753 55.835 L 157.207 55.835 L 157.207 108.438 L 174.753 108.438 L 174.753 102.589 L 192.263 102.589 L 192.263 120.135 L 186.415 120.135 L 186.415 125.948 L 186.415 125.948 Z  M 174.147 37.754 L 169.475 37.754 L 169.475 33.047 L 174.147 33.047 L 174.147 37.754 L 174.147 37.754 Z  M 184.667 30.729 L 182.349 30.729 L 182.349 28.375 L 184.667 28.375 L 184.667 30.729 L 184.667 30.729 Z  M 161.879 31.299 L 158.384 31.299 L 158.384 27.804 L 161.879 27.804 L 161.879 31.299 L 161.879 31.299 Z  M 151.358 32.476 L 145.509 32.476 L 145.509 26.627 L 151.358 26.627 L 151.358 32.476 L 151.358 32.476 Z  M 149.611 19.031 L 147.257 19.031 L 147.257 16.713 L 149.611 16.713 L 149.611 19.031 L 149.611 19.031 Z  M 173.576 19.637 L 170.045 19.637 L 170.045 16.107 L 173.576 16.107 L 173.576 19.637 L 173.576 19.637 Z  M 186.415 20.779 L 180.566 20.779 L 180.566 14.966 L 186.415 14.966 L 186.415 20.779 L 186.415 20.779 Z  M 161.308 13.183 L 158.954 13.183 L 158.954 10.864 L 161.308 10.864 L 161.308 13.183 L 161.308 13.183 Z  M 226.143 89.75 L 222.648 89.75 L 222.648 86.22 L 226.143 86.22 L 226.143 89.75 L 226.143 89.75 Z  M 243.653 89.75 L 240.158 89.75 L 240.158 86.22 L 243.653 86.22 L 243.653 89.75 L 243.653 89.75 Z  M 209.203 90.321 L 204.531 90.321 L 204.531 85.649 L 209.203 85.649 L 209.203 90.321 L 209.203 90.321 Z  M 203.925 90.892 L 209.774 90.892 L 209.774 85.079 L 203.925 85.079 L 203.925 90.892 L 203.925 90.892 Z  M 215.622 108.438 L 233.168 108.438 L 233.168 90.892 L 227.32 90.892 L 227.32 85.079 L 221.471 85.079 L 221.471 90.892 L 215.622 90.892 L 215.622 108.438 L 215.622 108.438 Z  M 238.982 90.892 L 244.83 90.892 L 244.83 85.079 L 238.982 85.079 L 238.982 90.892 L 238.982 90.892 Z  M 214.446 78.053 L 210.951 78.053 L 210.951 74.558 L 214.446 74.558 L 214.446 78.053 L 214.446 78.053 Z  M 238.411 78.624 L 233.739 78.624 L 233.739 73.952 L 238.411 73.952 L 238.411 78.624 L 238.411 78.624 Z  M 202.178 71.634 L 199.859 71.634 L 199.859 69.28 L 202.178 69.28 L 202.178 71.634 L 202.178 71.634 Z  M 243.653 72.204 L 240.158 72.204 L 240.158 68.709 L 243.653 68.709 L 243.653 72.204 L 243.653 72.204 Z  M 244.83 125.948 L 203.925 125.948 L 203.925 120.135 L 198.112 120.135 L 198.112 79.23 L 203.925 79.23 L 203.925 73.381 L 209.774 73.381 L 209.774 79.23 L 215.622 79.23 L 215.622 73.381 L 221.471 73.381 L 221.471 67.533 L 227.32 67.533 L 227.32 73.381 L 233.168 73.381 L 233.168 79.23 L 238.982 79.23 L 238.982 73.381 L 244.83 73.381 L 244.83 79.23 L 250.679 79.23 L 250.679 120.135 L 244.83 120.135 L 244.83 125.948 L 244.83 125.948 Z  M 209.203 66.962 L 204.531 66.962 L 204.531 62.29 L 209.203 62.29 L 209.203 66.962 L 209.203 66.962 Z  M 249.502 60.507 L 246.007 60.507 L 246.007 57.012 L 249.502 57.012 L 249.502 60.507 L 249.502 60.507 Z  M 219.724 54.088 L 217.37 54.088 L 217.37 51.77 L 219.724 51.77 L 219.724 54.088 L 219.724 54.088 Z  M 232.562 55.265 L 227.89 55.265 L 227.89 50.593 L 232.562 50.593 L 232.562 55.265 L 232.562 55.265 Z  M 243.083 48.239 L 240.765 48.239 L 240.765 45.921 L 243.083 45.921 L 243.083 48.239 L 243.083 48.239 Z  M 208.597 48.845 L 205.102 48.845 L 205.102 45.35 L 208.597 45.35 L 208.597 48.845 L 208.597 48.845 Z  M 261.199 95.599 L 257.669 95.599 L 257.669 92.069 L 261.199 92.069 L 261.199 95.599 L 261.199 95.599 Z  M 284.559 89.75 L 281.064 89.75 L 281.064 86.22 L 284.559 86.22 L 284.559 89.75 L 284.559 89.75 Z  M 274.038 108.438 L 291.584 108.438 L 291.584 90.892 L 285.735 90.892 L 285.735 85.079 L 279.887 85.079 L 279.887 90.892 L 274.038 90.892 L 274.038 108.438 L 274.038 108.438 Z  M 308.524 84.472 L 303.852 84.472 L 303.852 79.801 L 308.524 79.801 L 308.524 84.472 L 308.524 84.472 Z  M 278.71 78.053 L 275.215 78.053 L 275.215 74.558 L 278.71 74.558 L 278.71 78.053 L 278.71 78.053 Z  M 289.801 71.634 L 287.483 71.634 L 287.483 69.28 L 289.801 69.28 L 289.801 71.634 L 289.801 71.634 Z  M 272.861 72.204 L 269.366 72.204 L 269.366 68.709 L 272.861 68.709 L 272.861 72.204 L 272.861 72.204 Z  M 278.71 66.356 L 275.215 66.356 L 275.215 62.861 L 278.71 62.861 L 278.71 66.356 L 278.71 66.356 Z  M 260.593 59.936 L 258.275 59.936 L 258.275 57.618 L 260.593 57.618 L 260.593 59.936 L 260.593 59.936 Z  M 285.129 61.113 L 280.457 61.113 L 280.457 56.441 L 285.129 56.441 L 285.129 61.113 L 285.129 61.113 Z  M 273.467 55.265 L 268.796 55.265 L 268.796 50.593 L 273.467 50.593 L 273.467 55.265 L 273.467 55.265 Z  M 260.593 48.239 L 258.275 48.239 L 258.275 45.921 L 260.593 45.921 L 260.593 48.239 L 260.593 48.239 Z  M 278.139 48.239 L 275.786 48.239 L 275.786 45.921 L 278.139 45.921 L 278.139 48.239 L 278.139 48.239 Z  M 302.675 49.416 L 298.003 49.416 L 298.003 44.744 L 302.675 44.744 L 302.675 49.416 L 302.675 49.416 Z  M 297.397 50.022 L 303.246 50.022 L 303.246 44.173 L 297.397 44.173 L 297.397 50.022 L 297.397 50.022 Z  M 309.095 125.948 L 262.341 125.948 L 262.341 120.135 L 256.528 120.135 L 256.528 96.74 L 262.341 96.74 L 262.341 90.892 L 256.528 90.892 L 256.528 79.23 L 262.341 79.23 L 262.341 73.381 L 274.038 73.381 L 274.038 79.23 L 279.887 79.23 L 279.887 73.381 L 291.584 73.381 L 291.584 38.325 L 309.095 38.325 L 309.095 79.23 L 303.246 79.23 L 303.246 85.079 L 309.095 85.079 L 309.095 125.948 L 309.095 125.948 Z  M 307.347 30.729 L 304.993 30.729 L 304.993 28.375 L 307.347 28.375 L 307.347 30.729 L 307.347 30.729 Z  M 296.256 31.299 L 292.725 31.299 L 292.725 27.804 L 296.256 27.804 L 296.256 31.299 L 296.256 31.299 Z  M 302.675 26.057 L 298.003 26.057 L 298.003 21.385 L 302.675 21.385 L 302.675 26.057 L 302.675 26.057 Z  M 295.65 19.031 L 293.332 19.031 L 293.332 16.713 L 295.65 16.713 L 295.65 19.031 L 295.65 19.031 Z  M 326.034 90.321 L 321.363 90.321 L 321.363 85.649 L 326.034 85.649 L 326.034 90.321 L 326.034 90.321 Z  M 361.091 90.321 L 356.419 90.321 L 356.419 85.649 L 361.091 85.649 L 361.091 90.321 L 361.091 90.321 Z  M 355.813 90.892 L 361.661 90.892 L 361.661 85.079 L 355.813 85.079 L 355.813 90.892 L 355.813 90.892 Z  M 320.756 90.892 L 326.605 90.892 L 326.605 85.079 L 320.756 85.079 L 320.756 90.892 L 320.756 90.892 Z  M 332.454 96.74 L 350 96.74 L 350 90.892 L 332.454 90.892 L 332.454 96.74 L 332.454 96.74 Z  M 367.51 90.892 L 361.661 90.892 L 361.661 96.74 L 367.51 96.74 L 367.51 102.589 L 332.454 102.589 L 332.454 108.438 L 367.51 108.438 L 367.51 120.135 L 361.661 120.135 L 361.661 125.948 L 320.756 125.948 L 320.756 120.135 L 314.943 120.135 L 314.943 79.23 L 320.756 79.23 L 320.756 73.381 L 326.605 73.381 L 326.605 79.23 L 332.454 79.23 L 332.454 73.381 L 338.302 73.381 L 338.302 79.23 L 344.151 79.23 L 344.151 73.381 L 350 73.381 L 350 67.533 L 355.813 67.533 L 355.813 73.381 L 361.661 73.381 L 361.661 79.23 L 367.51 79.23 L 367.51 90.892 L 367.51 90.892 Z  M 342.404 48.239 L 340.05 48.239 L 340.05 45.921 L 342.404 45.921 L 342.404 48.239 L 342.404 48.239 Z  M 324.857 48.239 L 322.504 48.239 L 322.504 45.921 L 324.857 45.921 L 324.857 48.239 L 324.857 48.239 Z  M 361.091 55.265 L 356.419 55.265 L 356.419 50.593 L 361.091 50.593 L 361.091 55.265 L 361.091 55.265 Z  M 348.823 54.694 L 345.292 54.694 L 345.292 51.163 L 348.823 51.163 L 348.823 54.694 L 348.823 54.694 Z  M 337.696 61.113 L 333.024 61.113 L 333.024 56.441 L 337.696 56.441 L 337.696 61.113 L 337.696 61.113 Z  M 325.428 60.507 L 321.933 60.507 L 321.933 57.012 L 325.428 57.012 L 325.428 60.507 L 325.428 60.507 Z  M 348.217 65.785 L 345.898 65.785 L 345.898 63.431 L 348.217 63.431 L 348.217 65.785 L 348.217 65.785 Z  M 320.186 72.811 L 315.514 72.811 L 315.514 68.103 L 320.186 68.103 L 320.186 72.811 L 320.186 72.811 Z  M 366.333 72.204 L 362.838 72.204 L 362.838 68.709 L 366.333 68.709 L 366.333 72.204 L 366.333 72.204 Z  M 337.125 72.204 L 333.631 72.204 L 333.631 68.709 L 337.125 68.709 L 337.125 72.204 L 337.125 72.204 Z  M 343.545 78.624 L 338.873 78.624 L 338.873 73.952 L 343.545 73.952 L 343.545 78.624 L 343.545 78.624 Z  M 331.277 78.053 L 327.782 78.053 L 327.782 74.558 L 331.277 74.558 L 331.277 78.053 L 331.277 78.053 Z  M 366.333 95.599 L 362.838 95.599 L 362.838 92.069 L 366.333 92.069 L 366.333 95.599 L 366.333 95.599 Z " fill="rgb(0,0,0)"/><path d=" M 63.146 79.937 L 63.146 79.937 L 66.494 79.937 L 66.494 79.937 Q 68.527 79.937 70.38 80.295 L 70.38 80.295 L 70.38 80.295 Q 72.234 80.654 72.234 82.926 L 72.234 82.926 L 72.234 82.926 Q 73.071 87.709 66.614 87.589 L 66.614 87.589 L 66.614 87.589 Q 64.82 87.47 63.325 87.35 L 63.325 87.35 L 63.325 87.35 Q 61.831 87.231 60.874 87.29 L 60.874 87.29 L 60.874 87.29 Q 59.917 87.35 60.037 87.948 L 60.037 87.948 L 60.037 87.948 Q 61.233 91.416 62.608 95.72 L 62.608 95.72 L 62.608 95.72 Q 63.983 100.025 65.657 104.33 L 65.657 104.33 L 65.657 104.33 Q 69.962 114.972 73.788 119.635 L 73.788 119.635 L 73.788 119.635 Q 71.755 122.146 69.065 123.82 L 69.065 123.82 L 69.065 123.82 Q 66.374 125.494 66.195 125.494 L 66.195 125.494 L 66.195 125.494 Q 66.016 125.494 65.896 125.375 L 65.896 125.375 L 49.036 89.861 L 16.393 97.873 L 15.197 102.895 L 15.197 102.895 Q 11.729 116.646 7.425 122.027 L 7.425 122.027 L 7.425 122.027 Q 6.707 123.222 4.435 122.266 L 4.435 122.266 L 4.435 122.266 Q 0.609 120.831 0.609 119.874 L 0.609 119.874 L 0.609 119.874 Q 0.609 119.635 3.12 112.939 L 3.12 112.939 L 3.12 112.939 Q 5.631 106.243 8.202 99.367 L 8.202 99.367 L 8.202 99.367 Q 10.773 92.492 13.583 84.959 L 13.583 84.959 L 13.583 84.959 Q 16.393 77.426 18.904 70.61 L 18.904 70.61 L 18.904 70.61 Q 21.415 63.794 23.448 58.354 L 23.448 58.354 L 23.448 58.354 Q 25.48 52.913 26.317 50.462 L 26.317 50.462 L 26.317 50.462 Q 27.154 48.01 27.453 46.157 L 27.453 46.157 L 27.453 46.157 Q 27.752 44.304 28.35 42.988 L 28.35 42.988 L 28.35 42.988 Q 29.546 40.238 34.329 40.238 L 34.329 40.238 L 34.329 40.238 Q 39.47 43.108 42.28 47.712 L 42.28 47.712 L 42.28 47.712 Q 45.09 52.315 47.063 57.576 L 47.063 57.576 L 47.063 57.576 Q 49.036 62.838 50.949 68.218 L 50.949 68.218 L 50.949 68.218 Q 52.863 73.599 56.091 78.023 L 56.091 78.023 L 56.091 78.023 Q 57.167 79.697 59.32 79.817 L 59.32 79.817 L 59.32 79.817 Q 61.472 79.937 63.146 79.937 Z  M 33.253 54.109 L 33.253 54.109 L 33.253 54.109 Q 32.296 61.403 28.948 69.055 L 28.948 69.055 L 28.948 69.055 Q 25.6 76.708 23.567 80.953 L 23.567 80.953 L 23.567 80.953 Q 21.534 85.198 20.099 88.785 L 20.099 88.785 L 20.099 88.785 Q 28.23 88.785 40.068 84.002 L 40.068 84.002 L 40.068 84.002 Q 43.058 82.687 45.808 81.611 L 45.808 81.611 L 45.808 81.611 Q 40.188 57.576 33.253 54.109 Z  M 120.063 92.851 L 120.063 92.851 L 120.063 92.851 Q 133.216 92.851 133.216 99.547 L 133.216 99.547 L 133.216 99.547 Q 133.216 104.569 125.922 111.265 L 125.922 111.265 L 125.922 111.265 Q 115.041 121.19 96.627 127.168 L 96.627 127.168 L 96.627 127.168 Q 95.79 127.168 94.773 125.494 L 94.773 125.494 L 94.773 125.494 Q 93.757 123.82 93.219 122.923 L 93.219 122.923 L 93.219 122.923 Q 92.681 122.027 92.442 121.787 L 92.442 121.787 L 92.442 121.787 Q 106.193 117.244 115.041 110.787 L 115.041 110.787 L 115.041 110.787 Q 121.02 106.482 121.02 103.732 L 121.02 103.732 L 121.02 103.732 Q 121.02 100.982 113.965 100.982 L 113.965 100.982 L 113.965 100.982 Q 106.91 100.982 93.279 104.33 L 93.279 104.33 L 93.279 104.33 Q 87.061 104.091 82.517 99.905 L 82.517 99.905 L 82.517 99.905 Q 78.571 96.199 78.571 92.432 L 78.571 92.432 L 78.571 92.432 Q 78.571 88.666 80.723 85.497 L 80.723 85.497 L 80.723 85.497 Q 82.876 82.328 86.463 79.578 L 86.463 79.578 L 86.463 79.578 Q 90.05 76.828 94.833 74.556 L 94.833 74.556 L 94.833 74.556 Q 106.551 68.936 119.106 68.936 L 119.106 68.936 L 119.106 68.936 Q 122.813 68.936 126.281 69.653 L 126.281 69.653 L 126.281 69.653 Q 129.151 69.653 129.629 72.164 L 129.629 72.164 L 129.629 72.164 Q 130.107 74.675 130.107 80.415 L 130.107 80.415 L 130.107 80.415 Q 123.052 77.186 114.204 77.186 L 114.204 77.186 L 114.204 77.186 Q 103.203 77.186 96.029 81.611 L 96.029 81.611 L 96.029 81.611 Q 88.615 85.915 88.376 92.851 L 88.376 92.851 L 88.376 92.851 Q 88.376 96.199 93.279 96.199 L 93.279 96.199 L 102.007 95.242 L 102.007 95.242 Q 113.247 92.851 120.063 92.851 Z " fill="rgb(170,0,170)"/></g><path d=" M 546.47 125.813 L 546.47 125.813 L 543.168 125.813 L 543.168 125.813 Q 541.187 125.813 540.12 124.62 L 540.12 124.62 L 540.12 124.62 Q 539.053 123.426 539.053 121.14 L 539.053 121.14 L 539.053 119.972 L 539.053 119.972 Q 539.053 119.159 539.663 119.159 L 539.663 119.159 L 540.12 119.159 L 540.12 119.159 Q 540.78 119.159 540.78 119.972 L 540.78 119.972 L 540.78 121.089 L 540.78 121.089 Q 540.78 123.985 543.168 123.985 L 543.168 123.985 L 546.47 123.985 L 546.47 123.985 Q 548.908 123.985 548.908 121.089 L 548.908 121.089 L 548.908 119.667 L 548.908 119.667 Q 548.908 118.549 548.044 117.787 L 548.044 117.787 L 548.044 117.787 Q 547.181 117.025 545.758 116.67 L 545.758 116.67 L 545.758 116.67 Q 544.641 116.416 543.523 116.136 L 543.523 116.136 L 543.523 116.136 Q 542.406 115.857 541.39 115.298 L 541.39 115.298 L 541.39 115.298 Q 540.374 114.739 539.713 113.901 L 539.713 113.901 L 539.713 113.901 Q 539.053 113.063 539.053 111.742 L 539.053 111.742 L 539.053 109.964 L 539.053 109.964 Q 539.053 107.831 540.145 106.561 L 540.145 106.561 L 540.145 106.561 Q 541.237 105.291 543.168 105.291 L 543.168 105.291 L 546.47 105.291 L 546.47 105.291 Q 548.4 105.291 549.492 106.561 L 549.492 106.561 L 549.492 106.561 Q 550.584 107.831 550.584 109.964 L 550.584 109.964 L 550.584 110.777 L 550.584 110.777 Q 550.584 111.641 549.924 111.641 L 549.924 111.641 L 549.568 111.641 L 549.568 111.641 Q 548.908 111.641 548.908 110.777 L 548.908 110.777 L 548.908 109.964 L 548.908 109.964 Q 548.908 107.12 546.47 107.12 L 546.47 107.12 L 543.168 107.12 L 543.168 107.12 Q 540.78 107.12 540.78 109.964 L 540.78 109.964 L 540.78 111.692 L 540.78 111.692 Q 540.78 112.555 541.441 113.241 L 541.441 113.241 L 541.441 113.241 Q 542.101 113.927 543.828 114.333 L 543.828 114.333 L 543.828 114.333 Q 544.996 114.587 546.089 114.866 L 546.089 114.866 L 546.089 114.866 Q 547.181 115.146 548.248 115.755 L 548.248 115.755 L 548.248 115.755 Q 549.263 116.314 549.924 117.203 L 549.924 117.203 L 549.924 117.203 Q 550.584 118.092 550.584 119.565 L 550.584 119.565 L 550.584 121.14 L 550.584 121.14 Q 550.584 123.426 549.517 124.62 L 549.517 124.62 L 549.517 124.62 Q 548.451 125.813 546.47 125.813 Z  M 566.382 106.256 L 560.947 117.94 L 560.947 125.102 L 560.947 125.102 Q 560.947 125.813 560.236 125.813 L 560.236 125.813 L 559.88 125.813 L 559.88 125.813 Q 559.525 125.813 559.398 125.585 L 559.398 125.585 L 559.398 125.585 Q 559.271 125.356 559.271 125.102 L 559.271 125.102 L 559.271 117.94 L 553.784 106.307 L 553.784 106.307 Q 553.632 106.002 553.708 105.647 L 553.708 105.647 L 553.708 105.647 Q 553.784 105.291 554.292 105.291 L 554.292 105.291 L 554.8 105.291 L 554.8 105.291 Q 555.156 105.291 555.41 105.647 L 555.41 105.647 L 555.562 105.85 L 560.083 115.755 L 564.655 105.799 L 564.655 105.799 Q 564.757 105.596 564.909 105.494 L 564.909 105.494 L 564.909 105.494 Q 565.011 105.393 565.087 105.342 L 565.087 105.342 L 565.087 105.342 Q 565.163 105.291 565.417 105.291 L 565.417 105.291 L 565.824 105.291 L 565.824 105.291 Q 566.332 105.291 566.408 105.596 L 566.408 105.596 L 566.408 105.596 Q 566.484 105.901 566.382 106.256 L 566.382 106.256 L 566.382 106.256 Z  M 581.165 125.813 L 581.165 125.813 L 580.86 125.813 L 580.86 125.813 Q 580.453 125.813 580.149 125.356 L 580.149 125.356 L 571.716 109.456 L 571.716 125.102 L 571.716 125.102 Q 571.716 125.356 571.538 125.585 L 571.538 125.585 L 571.538 125.585 Q 571.361 125.813 571.005 125.813 L 571.005 125.813 L 570.649 125.813 L 570.649 125.813 Q 569.938 125.813 569.938 125.102 L 569.938 125.102 L 569.938 106.053 L 569.938 106.053 Q 569.938 105.291 570.649 105.291 L 570.649 105.291 L 571.005 105.291 L 571.005 105.291 Q 571.513 105.291 571.513 105.596 L 571.513 105.596 L 580.149 121.546 L 580.149 106.053 L 580.149 106.053 Q 580.149 105.799 580.276 105.545 L 580.276 105.545 L 580.276 105.545 Q 580.403 105.291 580.758 105.291 L 580.758 105.291 L 581.165 105.291 L 581.165 105.291 Q 581.52 105.291 581.672 105.545 L 581.672 105.545 L 581.672 105.545 Q 581.825 105.799 581.825 106.053 L 581.825 106.053 L 581.825 125.102 L 581.825 125.102 Q 581.825 125.356 581.672 125.585 L 581.672 125.585 L 581.672 125.585 Q 581.52 125.813 581.165 125.813 Z  M 595.693 107.12 L 595.693 107.12 L 591.68 107.12 L 591.68 125.102 L 591.68 125.102 Q 591.68 125.356 591.502 125.585 L 591.502 125.585 L 591.502 125.585 Q 591.324 125.813 590.968 125.813 L 590.968 125.813 L 590.664 125.813 L 590.664 125.813 Q 590.308 125.813 590.156 125.585 L 590.156 125.585 L 590.156 125.585 Q 590.003 125.356 590.003 125.102 L 590.003 125.102 L 590.003 107.12 L 585.94 107.12 L 585.94 107.12 Q 585.686 107.12 585.482 106.967 L 585.482 106.967 L 585.482 106.967 Q 585.279 106.815 585.279 106.409 L 585.279 106.409 L 585.279 106.002 L 585.279 106.002 Q 585.279 105.291 585.94 105.291 L 585.94 105.291 L 595.693 105.291 L 595.693 105.291 Q 596.353 105.291 596.353 106.002 L 596.353 106.002 L 596.353 106.409 L 596.353 106.409 Q 596.353 107.12 595.693 107.12 Z  M 611.796 125.813 L 611.796 125.813 L 611.338 125.813 L 611.338 125.813 Q 611.034 125.813 610.881 125.61 L 610.881 125.61 L 610.881 125.61 Q 610.729 125.407 610.627 125.102 L 610.627 125.102 L 609.103 120.327 L 601.788 120.327 L 600.163 125.204 L 600.163 125.204 Q 599.909 125.813 599.452 125.813 L 599.452 125.813 L 599.096 125.813 L 599.096 125.813 Q 598.741 125.813 598.563 125.509 L 598.563 125.509 L 598.563 125.509 Q 598.385 125.204 598.487 124.899 L 598.487 124.899 L 604.379 106.002 L 604.532 105.697 L 604.532 105.697 Q 604.582 105.647 604.582 105.621 L 604.582 105.621 L 604.582 105.621 Q 604.582 105.596 604.633 105.545 L 604.633 105.545 L 604.633 105.545 Q 604.836 105.291 605.09 105.291 L 605.09 105.291 L 605.751 105.291 L 605.751 105.291 Q 606.259 105.291 606.513 105.901 L 606.513 105.901 L 612.405 124.899 L 612.405 124.899 Q 612.507 125.204 612.329 125.509 L 612.329 125.509 L 612.329 125.509 Q 612.151 125.813 611.796 125.813 Z  M 608.443 118.346 L 605.395 108.034 L 605.395 108.034 Q 604.582 111.133 603.795 113.825 L 603.795 113.825 L 603.795 113.825 Q 603.008 116.517 602.449 118.346 L 602.449 118.346 L 608.443 118.346 L 608.443 118.346 Z  M 626.933 125.813 L 626.933 125.813 L 626.476 125.813 L 626.476 125.813 Q 626.375 125.813 626.171 125.737 L 626.171 125.737 L 626.171 125.737 Q 625.968 125.661 625.714 125.407 L 625.714 125.407 L 621.193 116.568 L 616.672 125.407 L 616.672 125.407 Q 616.418 125.661 616.215 125.737 L 616.215 125.737 L 616.215 125.737 Q 616.012 125.813 615.91 125.813 L 615.91 125.813 L 615.453 125.813 L 615.453 125.813 Q 615.047 125.813 614.894 125.483 L 614.894 125.483 L 614.894 125.483 Q 614.742 125.153 614.996 124.747 L 614.996 124.747 L 620.126 114.993 L 615.301 106.358 L 615.301 106.358 Q 615.097 105.901 615.174 105.596 L 615.174 105.596 L 615.174 105.596 Q 615.25 105.291 615.809 105.291 L 615.809 105.291 L 616.215 105.291 L 616.215 105.291 Q 616.723 105.291 617.028 105.85 L 617.028 105.85 L 621.193 113.368 L 625.409 105.85 L 625.409 105.85 Q 625.613 105.545 625.714 105.443 L 625.714 105.443 L 625.714 105.443 Q 625.867 105.291 626.121 105.291 L 626.121 105.291 L 626.578 105.291 L 626.578 105.291 Q 627.086 105.291 627.187 105.596 L 627.187 105.596 L 627.187 105.596 Q 627.289 105.901 627.035 106.358 L 627.035 106.358 L 622.26 114.993 L 627.492 124.848 L 627.492 125.102 L 627.492 125.102 Q 627.492 125.813 626.933 125.813 Z  M 388.895 125.813 L 388.895 125.813 L 388.438 125.813 L 388.438 125.813 Q 388.133 125.813 387.98 125.61 L 387.98 125.61 L 387.98 125.61 Q 387.828 125.407 387.726 125.102 L 387.726 125.102 L 386.202 120.327 L 378.888 120.327 L 377.262 125.204 L 377.262 125.204 Q 377.008 125.813 376.551 125.813 L 376.551 125.813 L 376.195 125.813 L 376.195 125.813 Q 375.84 125.813 375.662 125.509 L 375.662 125.509 L 375.662 125.509 Q 375.484 125.204 375.586 124.899 L 375.586 124.899 L 381.478 106.002 L 381.631 105.697 L 381.631 105.697 Q 381.681 105.647 381.681 105.621 L 381.681 105.621 L 381.681 105.621 Q 381.681 105.596 381.732 105.545 L 381.732 105.545 L 381.732 105.545 Q 381.935 105.291 382.189 105.291 L 382.189 105.291 L 382.85 105.291 L 382.85 105.291 Q 383.358 105.291 383.612 105.901 L 383.612 105.901 L 389.504 124.899 L 389.504 124.899 Q 389.606 125.204 389.428 125.509 L 389.428 125.509 L 389.428 125.509 Q 389.25 125.813 388.895 125.813 Z  M 385.542 118.346 L 382.494 108.034 L 382.494 108.034 Q 381.681 111.133 380.894 113.825 L 380.894 113.825 L 380.894 113.825 Q 380.107 116.517 379.548 118.346 L 379.548 118.346 L 385.542 118.346 L 385.542 118.346 Z  M 402.051 125.813 L 402.051 125.813 L 393.568 125.813 L 393.568 125.813 Q 392.908 125.813 392.908 125.102 L 392.908 125.102 L 392.908 106.053 L 392.908 106.053 Q 392.908 105.748 393.06 105.52 L 393.06 105.52 L 393.06 105.52 Q 393.213 105.291 393.568 105.291 L 393.568 105.291 L 393.924 105.291 L 393.924 105.291 Q 394.33 105.291 394.482 105.545 L 394.482 105.545 L 394.482 105.545 Q 394.635 105.799 394.635 106.053 L 394.635 106.053 L 394.635 123.934 L 402.051 123.934 L 402.051 123.934 Q 402.305 123.934 402.483 124.162 L 402.483 124.162 L 402.483 124.162 Q 402.661 124.391 402.661 124.645 L 402.661 124.645 L 402.661 125.102 L 402.661 125.102 Q 402.661 125.458 402.483 125.636 L 402.483 125.636 L 402.483 125.636 Q 402.305 125.813 402.051 125.813 Z  M 415.665 107.12 L 415.665 107.12 L 411.652 107.12 L 411.652 125.102 L 411.652 125.102 Q 411.652 125.356 411.474 125.585 L 411.474 125.585 L 411.474 125.585 Q 411.297 125.813 410.941 125.813 L 410.941 125.813 L 410.636 125.813 L 410.636 125.813 Q 410.281 125.813 410.128 125.585 L 410.128 125.585 L 410.128 125.585 Q 409.976 125.356 409.976 125.102 L 409.976 125.102 L 409.976 107.12 L 405.912 107.12 L 405.912 107.12 Q 405.658 107.12 405.455 106.967 L 405.455 106.967 L 405.455 106.967 Q 405.252 106.815 405.252 106.409 L 405.252 106.409 L 405.252 106.002 L 405.252 106.002 Q 405.252 105.291 405.912 105.291 L 405.912 105.291 L 415.665 105.291 L 415.665 105.291 Q 416.326 105.291 416.326 106.002 L 416.326 106.002 L 416.326 106.409 L 416.326 106.409 Q 416.326 107.12 415.665 107.12 Z  M 428.619 125.813 L 428.619 125.813 L 420.491 125.813 L 420.491 125.813 Q 419.881 125.813 419.881 125.102 L 419.881 125.102 L 419.881 106.053 L 419.881 106.053 Q 419.881 105.291 420.491 105.291 L 420.491 105.291 L 428.619 105.291 L 428.619 105.291 Q 429.279 105.291 429.279 106.002 L 429.279 106.002 L 429.279 106.409 L 429.279 106.409 Q 429.279 106.764 429.05 106.942 L 429.05 106.942 L 429.05 106.942 Q 428.822 107.12 428.619 107.12 L 428.619 107.12 L 421.507 107.12 L 421.507 114.435 L 427.958 114.435 L 427.958 114.435 Q 428.161 114.435 428.39 114.612 L 428.39 114.612 L 428.39 114.612 Q 428.619 114.79 428.619 115.197 L 428.619 115.197 L 428.619 115.552 L 428.619 115.552 Q 428.619 116.263 427.958 116.263 L 427.958 116.263 L 421.507 116.263 L 421.507 123.985 L 428.619 123.985 L 428.619 123.985 Q 429.279 123.985 429.279 124.696 L 429.279 124.696 L 429.279 125.102 L 429.279 125.102 Q 429.279 125.458 429.05 125.636 L 429.05 125.636 L 429.05 125.636 Q 428.822 125.813 428.619 125.813 Z  M 444.417 125.813 L 444.417 125.813 L 443.858 125.813 L 443.858 125.813 Q 443.35 125.813 443.198 125.407 L 443.198 125.407 L 439.947 117.584 L 435.426 117.584 L 435.426 125.102 L 435.426 125.102 Q 435.426 125.813 434.664 125.813 L 434.664 125.813 L 434.359 125.813 L 434.359 125.813 Q 434.105 125.813 433.876 125.686 L 433.876 125.686 L 433.876 125.686 Q 433.648 125.559 433.648 125.102 L 433.648 125.102 L 433.648 106.002 L 433.648 106.002 Q 433.648 105.291 434.359 105.291 L 434.359 105.291 L 440.455 105.291 L 440.455 105.291 Q 442.436 105.291 443.528 106.485 L 443.528 106.485 L 443.528 106.485 Q 444.62 107.679 444.62 109.964 L 444.62 109.964 L 444.62 112.911 L 444.62 112.911 Q 444.62 114.587 443.934 115.679 L 443.934 115.679 L 443.934 115.679 Q 443.248 116.771 441.674 117.483 L 441.674 117.483 L 444.874 124.848 L 444.874 124.848 Q 444.925 125.051 444.95 125.432 L 444.95 125.432 L 444.95 125.432 Q 444.976 125.813 444.417 125.813 Z  M 442.944 112.911 L 442.944 109.964 L 442.944 109.964 Q 442.944 107.069 440.455 107.069 L 440.455 107.069 L 435.426 107.069 L 435.426 115.755 L 440.455 115.755 L 440.455 115.755 Q 442.944 115.755 442.944 112.911 L 442.944 112.911 L 442.944 112.911 Z  M 460.367 125.813 L 460.367 125.813 L 460.062 125.813 L 460.062 125.813 Q 459.656 125.813 459.351 125.356 L 459.351 125.356 L 450.919 109.456 L 450.919 125.102 L 450.919 125.102 Q 450.919 125.356 450.741 125.585 L 450.741 125.585 L 450.741 125.585 Q 450.563 125.813 450.208 125.813 L 450.208 125.813 L 449.852 125.813 L 449.852 125.813 Q 449.141 125.813 449.141 125.102 L 449.141 125.102 L 449.141 106.053 L 449.141 106.053 Q 449.141 105.291 449.852 105.291 L 449.852 105.291 L 450.208 105.291 L 450.208 105.291 Q 450.716 105.291 450.716 105.596 L 450.716 105.596 L 459.351 121.546 L 459.351 106.053 L 459.351 106.053 Q 459.351 105.799 459.478 105.545 L 459.478 105.545 L 459.478 105.545 Q 459.605 105.291 459.961 105.291 L 459.961 105.291 L 460.367 105.291 L 460.367 105.291 Q 460.723 105.291 460.875 105.545 L 460.875 105.545 L 460.875 105.545 Q 461.028 105.799 461.028 106.053 L 461.028 106.053 L 461.028 125.102 L 461.028 125.102 Q 461.028 125.356 460.875 125.585 L 460.875 125.585 L 460.875 125.585 Q 460.723 125.813 460.367 125.813 Z  M 477.842 125.813 L 477.842 125.813 L 477.385 125.813 L 477.385 125.813 Q 477.08 125.813 476.927 125.61 L 476.927 125.61 L 476.927 125.61 Q 476.775 125.407 476.673 125.102 L 476.673 125.102 L 475.149 120.327 L 467.835 120.327 L 466.209 125.204 L 466.209 125.204 Q 465.955 125.813 465.498 125.813 L 465.498 125.813 L 465.142 125.813 L 465.142 125.813 Q 464.787 125.813 464.609 125.509 L 464.609 125.509 L 464.609 125.509 Q 464.431 125.204 464.533 124.899 L 464.533 124.899 L 470.425 106.002 L 470.578 105.697 L 470.578 105.697 Q 470.628 105.647 470.628 105.621 L 470.628 105.621 L 470.628 105.621 Q 470.628 105.596 470.679 105.545 L 470.679 105.545 L 470.679 105.545 Q 470.882 105.291 471.136 105.291 L 471.136 105.291 L 471.797 105.291 L 471.797 105.291 Q 472.305 105.291 472.559 105.901 L 472.559 105.901 L 478.451 124.899 L 478.451 124.899 Q 478.553 125.204 478.375 125.509 L 478.375 125.509 L 478.375 125.509 Q 478.197 125.813 477.842 125.813 Z  M 474.489 118.346 L 471.441 108.034 L 471.441 108.034 Q 470.628 111.133 469.841 113.825 L 469.841 113.825 L 469.841 113.825 Q 469.054 116.517 468.495 118.346 L 468.495 118.346 L 474.489 118.346 L 474.489 118.346 Z  M 491.151 107.12 L 491.151 107.12 L 487.138 107.12 L 487.138 125.102 L 487.138 125.102 Q 487.138 125.356 486.96 125.585 L 486.96 125.585 L 486.96 125.585 Q 486.782 125.813 486.427 125.813 L 486.427 125.813 L 486.122 125.813 L 486.122 125.813 Q 485.766 125.813 485.614 125.585 L 485.614 125.585 L 485.614 125.585 Q 485.461 125.356 485.461 125.102 L 485.461 125.102 L 485.461 107.12 L 481.398 107.12 L 481.398 107.12 Q 481.144 107.12 480.94 106.967 L 480.94 106.967 L 480.94 106.967 Q 480.737 106.815 480.737 106.409 L 480.737 106.409 L 480.737 106.002 L 480.737 106.002 Q 480.737 105.291 481.398 105.291 L 481.398 105.291 L 491.151 105.291 L 491.151 105.291 Q 491.811 105.291 491.811 106.002 L 491.811 106.002 L 491.811 106.409 L 491.811 106.409 Q 491.811 107.12 491.151 107.12 Z  M 495.773 125.813 L 495.773 125.813 L 495.367 125.813 L 495.367 125.813 Q 495.113 125.813 494.961 125.559 L 494.961 125.559 L 494.961 125.559 Q 494.808 125.305 494.808 125.051 L 494.808 125.051 L 494.808 106.053 L 494.808 106.053 Q 494.808 105.291 495.367 105.291 L 495.367 105.291 L 495.773 105.291 L 495.773 105.291 Q 496.434 105.291 496.434 106.053 L 496.434 106.053 L 496.434 125.051 L 496.434 125.051 Q 496.434 125.813 495.773 125.813 Z  M 512.638 106.104 L 507.254 125.204 L 507.254 125.204 Q 507.152 125.458 507 125.636 L 507 125.636 L 507 125.636 Q 506.847 125.813 506.593 125.813 L 506.593 125.813 L 505.882 125.813 L 505.882 125.813 Q 505.425 125.813 505.273 125.407 L 505.273 125.407 L 505.273 125.407 Q 505.273 125.305 505.247 125.28 L 505.247 125.28 L 505.247 125.28 Q 505.222 125.255 505.222 125.204 L 505.222 125.204 L 499.786 106.104 L 499.786 106.104 Q 499.685 105.85 499.812 105.57 L 499.812 105.57 L 499.812 105.57 Q 499.939 105.291 500.345 105.291 L 500.345 105.291 L 500.802 105.291 L 500.802 105.291 Q 501.107 105.291 501.209 105.469 L 501.209 105.469 L 501.209 105.469 Q 501.31 105.647 501.412 105.901 L 501.412 105.901 L 506.238 122.461 L 510.962 106.002 L 511.114 105.697 L 511.114 105.596 L 511.165 105.545 L 511.267 105.443 L 511.267 105.443 Q 511.368 105.291 511.622 105.291 L 511.622 105.291 L 512.13 105.291 L 512.13 105.291 Q 512.537 105.291 512.638 105.57 L 512.638 105.57 L 512.638 105.57 Q 512.74 105.85 512.638 106.104 L 512.638 106.104 L 512.638 106.104 Z  M 525.185 125.813 L 525.185 125.813 L 517.058 125.813 L 517.058 125.813 Q 516.448 125.813 516.448 125.102 L 516.448 125.102 L 516.448 106.053 L 516.448 106.053 Q 516.448 105.291 517.058 105.291 L 517.058 105.291 L 525.185 105.291 L 525.185 105.291 Q 525.846 105.291 525.846 106.002 L 525.846 106.002 L 525.846 106.409 L 525.846 106.409 Q 525.846 106.764 525.617 106.942 L 525.617 106.942 L 525.617 106.942 Q 525.388 107.12 525.185 107.12 L 525.185 107.12 L 518.074 107.12 L 518.074 114.435 L 524.525 114.435 L 524.525 114.435 Q 524.728 114.435 524.957 114.612 L 524.957 114.612 L 524.957 114.612 Q 525.185 114.79 525.185 115.197 L 525.185 115.197 L 525.185 115.552 L 525.185 115.552 Q 525.185 116.263 524.525 116.263 L 524.525 116.263 L 518.074 116.263 L 518.074 123.985 L 525.185 123.985 L 525.185 123.985 Q 525.846 123.985 525.846 124.696 L 525.846 124.696 L 525.846 125.102 L 525.846 125.102 Q 525.846 125.458 525.617 125.636 L 525.617 125.636 L 525.617 125.636 Q 525.388 125.813 525.185 125.813 Z " fill="rgb(0,0,0)"/><path d=" M 546.47 178.207 L 546.47 178.207 L 543.168 178.207 L 543.168 178.207 Q 541.187 178.207 540.12 177.014 L 540.12 177.014 L 540.12 177.014 Q 539.053 175.82 539.053 173.534 L 539.053 173.534 L 539.053 172.366 L 539.053 172.366 Q 539.053 171.553 539.663 171.553 L 539.663 171.553 L 540.12 171.553 L 540.12 171.553 Q 540.78 171.553 540.78 172.366 L 540.78 172.366 L 540.78 173.483 L 540.78 173.483 Q 540.78 176.379 543.168 176.379 L 543.168 176.379 L 546.47 176.379 L 546.47 176.379 Q 548.908 176.379 548.908 173.483 L 548.908 173.483 L 548.908 172.061 L 548.908 172.061 Q 548.908 170.943 548.044 170.181 L 548.044 170.181 L 548.044 170.181 Q 547.181 169.419 545.758 169.064 L 545.758 169.064 L 545.758 169.064 Q 544.641 168.81 543.523 168.53 L 543.523 168.53 L 543.523 168.53 Q 542.406 168.251 541.39 167.692 L 541.39 167.692 L 541.39 167.692 Q 540.374 167.134 539.713 166.295 L 539.713 166.295 L 539.713 166.295 Q 539.053 165.457 539.053 164.136 L 539.053 164.136 L 539.053 162.359 L 539.053 162.359 Q 539.053 160.225 540.145 158.955 L 540.145 158.955 L 540.145 158.955 Q 541.237 157.685 543.168 157.685 L 543.168 157.685 L 546.47 157.685 L 546.47 157.685 Q 548.4 157.685 549.492 158.955 L 549.492 158.955 L 549.492 158.955 Q 550.584 160.225 550.584 162.359 L 550.584 162.359 L 550.584 163.171 L 550.584 163.171 Q 550.584 164.035 549.924 164.035 L 549.924 164.035 L 549.568 164.035 L 549.568 164.035 Q 548.908 164.035 548.908 163.171 L 548.908 163.171 L 548.908 162.359 L 548.908 162.359 Q 548.908 159.514 546.47 159.514 L 546.47 159.514 L 543.168 159.514 L 543.168 159.514 Q 540.78 159.514 540.78 162.359 L 540.78 162.359 L 540.78 164.086 L 540.78 164.086 Q 540.78 164.949 541.441 165.635 L 541.441 165.635 L 541.441 165.635 Q 542.101 166.321 543.828 166.727 L 543.828 166.727 L 543.828 166.727 Q 544.996 166.981 546.089 167.261 L 546.089 167.261 L 546.089 167.261 Q 547.181 167.54 548.248 168.149 L 548.248 168.149 L 548.248 168.149 Q 549.263 168.708 549.924 169.597 L 549.924 169.597 L 549.924 169.597 Q 550.584 170.486 550.584 171.959 L 550.584 171.959 L 550.584 173.534 L 550.584 173.534 Q 550.584 175.82 549.517 177.014 L 549.517 177.014 L 549.517 177.014 Q 548.451 178.207 546.47 178.207 Z  M 566.382 158.65 L 560.947 170.334 L 560.947 177.496 L 560.947 177.496 Q 560.947 178.207 560.236 178.207 L 560.236 178.207 L 559.88 178.207 L 559.88 178.207 Q 559.525 178.207 559.398 177.979 L 559.398 177.979 L 559.398 177.979 Q 559.271 177.75 559.271 177.496 L 559.271 177.496 L 559.271 170.334 L 553.784 158.701 L 553.784 158.701 Q 553.632 158.396 553.708 158.041 L 553.708 158.041 L 553.708 158.041 Q 553.784 157.685 554.292 157.685 L 554.292 157.685 L 554.8 157.685 L 554.8 157.685 Q 555.156 157.685 555.41 158.041 L 555.41 158.041 L 555.562 158.244 L 560.083 168.149 L 564.655 158.193 L 564.655 158.193 Q 564.757 157.99 564.909 157.888 L 564.909 157.888 L 564.909 157.888 Q 565.011 157.787 565.087 157.736 L 565.087 157.736 L 565.087 157.736 Q 565.163 157.685 565.417 157.685 L 565.417 157.685 L 565.824 157.685 L 565.824 157.685 Q 566.332 157.685 566.408 157.99 L 566.408 157.99 L 566.408 157.99 Q 566.484 158.295 566.382 158.65 L 566.382 158.65 L 566.382 158.65 Z  M 581.165 178.207 L 581.165 178.207 L 580.86 178.207 L 580.86 178.207 Q 580.453 178.207 580.149 177.75 L 580.149 177.75 L 571.716 161.851 L 571.716 177.496 L 571.716 177.496 Q 571.716 177.75 571.538 177.979 L 571.538 177.979 L 571.538 177.979 Q 571.361 178.207 571.005 178.207 L 571.005 178.207 L 570.649 178.207 L 570.649 178.207 Q 569.938 178.207 569.938 177.496 L 569.938 177.496 L 569.938 158.447 L 569.938 158.447 Q 569.938 157.685 570.649 157.685 L 570.649 157.685 L 571.005 157.685 L 571.005 157.685 Q 571.513 157.685 571.513 157.99 L 571.513 157.99 L 580.149 173.94 L 580.149 158.447 L 580.149 158.447 Q 580.149 158.193 580.276 157.939 L 580.276 157.939 L 580.276 157.939 Q 580.403 157.685 580.758 157.685 L 580.758 157.685 L 581.165 157.685 L 581.165 157.685 Q 581.52 157.685 581.672 157.939 L 581.672 157.939 L 581.672 157.939 Q 581.825 158.193 581.825 158.447 L 581.825 158.447 L 581.825 177.496 L 581.825 177.496 Q 581.825 177.75 581.672 177.979 L 581.672 177.979 L 581.672 177.979 Q 581.52 178.207 581.165 178.207 Z  M 595.693 159.514 L 595.693 159.514 L 591.68 159.514 L 591.68 177.496 L 591.68 177.496 Q 591.68 177.75 591.502 177.979 L 591.502 177.979 L 591.502 177.979 Q 591.324 178.207 590.968 178.207 L 590.968 178.207 L 590.664 178.207 L 590.664 178.207 Q 590.308 178.207 590.156 177.979 L 590.156 177.979 L 590.156 177.979 Q 590.003 177.75 590.003 177.496 L 590.003 177.496 L 590.003 159.514 L 585.94 159.514 L 585.94 159.514 Q 585.686 159.514 585.482 159.361 L 585.482 159.361 L 585.482 159.361 Q 585.279 159.209 585.279 158.803 L 585.279 158.803 L 585.279 158.396 L 585.279 158.396 Q 585.279 157.685 585.94 157.685 L 585.94 157.685 L 595.693 157.685 L 595.693 157.685 Q 596.353 157.685 596.353 158.396 L 596.353 158.396 L 596.353 158.803 L 596.353 158.803 Q 596.353 159.514 595.693 159.514 Z  M 611.796 178.207 L 611.796 178.207 L 611.338 178.207 L 611.338 178.207 Q 611.034 178.207 610.881 178.004 L 610.881 178.004 L 610.881 178.004 Q 610.729 177.801 610.627 177.496 L 610.627 177.496 L 609.103 172.721 L 601.788 172.721 L 600.163 177.598 L 600.163 177.598 Q 599.909 178.207 599.452 178.207 L 599.452 178.207 L 599.096 178.207 L 599.096 178.207 Q 598.741 178.207 598.563 177.903 L 598.563 177.903 L 598.563 177.903 Q 598.385 177.598 598.487 177.293 L 598.487 177.293 L 604.379 158.396 L 604.532 158.091 L 604.532 158.091 Q 604.582 158.041 604.582 158.015 L 604.582 158.015 L 604.582 158.015 Q 604.582 157.99 604.633 157.939 L 604.633 157.939 L 604.633 157.939 Q 604.836 157.685 605.09 157.685 L 605.09 157.685 L 605.751 157.685 L 605.751 157.685 Q 606.259 157.685 606.513 158.295 L 606.513 158.295 L 612.405 177.293 L 612.405 177.293 Q 612.507 177.598 612.329 177.903 L 612.329 177.903 L 612.329 177.903 Q 612.151 178.207 611.796 178.207 Z  M 608.443 170.74 L 605.395 160.428 L 605.395 160.428 Q 604.582 163.527 603.795 166.219 L 603.795 166.219 L 603.795 166.219 Q 603.008 168.911 602.449 170.74 L 602.449 170.74 L 608.443 170.74 L 608.443 170.74 Z  M 626.933 178.207 L 626.933 178.207 L 626.476 178.207 L 626.476 178.207 Q 626.375 178.207 626.171 178.131 L 626.171 178.131 L 626.171 178.131 Q 625.968 178.055 625.714 177.801 L 625.714 177.801 L 621.193 168.962 L 616.672 177.801 L 616.672 177.801 Q 616.418 178.055 616.215 178.131 L 616.215 178.131 L 616.215 178.131 Q 616.012 178.207 615.91 178.207 L 615.91 178.207 L 615.453 178.207 L 615.453 178.207 Q 615.047 178.207 614.894 177.877 L 614.894 177.877 L 614.894 177.877 Q 614.742 177.547 614.996 177.141 L 614.996 177.141 L 620.126 167.388 L 615.301 158.752 L 615.301 158.752 Q 615.097 158.295 615.174 157.99 L 615.174 157.99 L 615.174 157.99 Q 615.25 157.685 615.809 157.685 L 615.809 157.685 L 616.215 157.685 L 616.215 157.685 Q 616.723 157.685 617.028 158.244 L 617.028 158.244 L 621.193 165.762 L 625.409 158.244 L 625.409 158.244 Q 625.613 157.939 625.714 157.838 L 625.714 157.838 L 625.714 157.838 Q 625.867 157.685 626.121 157.685 L 626.121 157.685 L 626.578 157.685 L 626.578 157.685 Q 627.086 157.685 627.187 157.99 L 627.187 157.99 L 627.187 157.99 Q 627.289 158.295 627.035 158.752 L 627.035 158.752 L 622.26 167.388 L 627.492 177.242 L 627.492 177.496 L 627.492 177.496 Q 627.492 178.207 626.933 178.207 Z  M 388.895 178.207 L 388.895 178.207 L 388.438 178.207 L 388.438 178.207 Q 388.133 178.207 387.98 178.004 L 387.98 178.004 L 387.98 178.004 Q 387.828 177.801 387.726 177.496 L 387.726 177.496 L 386.202 172.721 L 378.888 172.721 L 377.262 177.598 L 377.262 177.598 Q 377.008 178.207 376.551 178.207 L 376.551 178.207 L 376.195 178.207 L 376.195 178.207 Q 375.84 178.207 375.662 177.903 L 375.662 177.903 L 375.662 177.903 Q 375.484 177.598 375.586 177.293 L 375.586 177.293 L 381.478 158.396 L 381.631 158.091 L 381.631 158.091 Q 381.681 158.041 381.681 158.015 L 381.681 158.015 L 381.681 158.015 Q 381.681 157.99 381.732 157.939 L 381.732 157.939 L 381.732 157.939 Q 381.935 157.685 382.189 157.685 L 382.189 157.685 L 382.85 157.685 L 382.85 157.685 Q 383.358 157.685 383.612 158.295 L 383.612 158.295 L 389.504 177.293 L 389.504 177.293 Q 389.606 177.598 389.428 177.903 L 389.428 177.903 L 389.428 177.903 Q 389.25 178.207 388.895 178.207 Z  M 385.542 170.74 L 382.494 160.428 L 382.494 160.428 Q 381.681 163.527 380.894 166.219 L 380.894 166.219 L 380.894 166.219 Q 380.107 168.911 379.548 170.74 L 379.548 170.74 L 385.542 170.74 L 385.542 170.74 Z  M 402.051 178.207 L 402.051 178.207 L 393.568 178.207 L 393.568 178.207 Q 392.908 178.207 392.908 177.496 L 392.908 177.496 L 392.908 158.447 L 392.908 158.447 Q 392.908 158.142 393.06 157.914 L 393.06 157.914 L 393.06 157.914 Q 393.213 157.685 393.568 157.685 L 393.568 157.685 L 393.924 157.685 L 393.924 157.685 Q 394.33 157.685 394.482 157.939 L 394.482 157.939 L 394.482 157.939 Q 394.635 158.193 394.635 158.447 L 394.635 158.447 L 394.635 176.328 L 402.051 176.328 L 402.051 176.328 Q 402.305 176.328 402.483 176.557 L 402.483 176.557 L 402.483 176.557 Q 402.661 176.785 402.661 177.039 L 402.661 177.039 L 402.661 177.496 L 402.661 177.496 Q 402.661 177.852 402.483 178.03 L 402.483 178.03 L 402.483 178.03 Q 402.305 178.207 402.051 178.207 Z  M 415.665 159.514 L 415.665 159.514 L 411.652 159.514 L 411.652 177.496 L 411.652 177.496 Q 411.652 177.75 411.474 177.979 L 411.474 177.979 L 411.474 177.979 Q 411.297 178.207 410.941 178.207 L 410.941 178.207 L 410.636 178.207 L 410.636 178.207 Q 410.281 178.207 410.128 177.979 L 410.128 177.979 L 410.128 177.979 Q 409.976 177.75 409.976 177.496 L 409.976 177.496 L 409.976 159.514 L 405.912 159.514 L 405.912 159.514 Q 405.658 159.514 405.455 159.361 L 405.455 159.361 L 405.455 159.361 Q 405.252 159.209 405.252 158.803 L 405.252 158.803 L 405.252 158.396 L 405.252 158.396 Q 405.252 157.685 405.912 157.685 L 405.912 157.685 L 415.665 157.685 L 415.665 157.685 Q 416.326 157.685 416.326 158.396 L 416.326 158.396 L 416.326 158.803 L 416.326 158.803 Q 416.326 159.514 415.665 159.514 Z  M 428.619 178.207 L 428.619 178.207 L 420.491 178.207 L 420.491 178.207 Q 419.881 178.207 419.881 177.496 L 419.881 177.496 L 419.881 158.447 L 419.881 158.447 Q 419.881 157.685 420.491 157.685 L 420.491 157.685 L 428.619 157.685 L 428.619 157.685 Q 429.279 157.685 429.279 158.396 L 429.279 158.396 L 429.279 158.803 L 429.279 158.803 Q 429.279 159.158 429.05 159.336 L 429.05 159.336 L 429.05 159.336 Q 428.822 159.514 428.619 159.514 L 428.619 159.514 L 421.507 159.514 L 421.507 166.829 L 427.958 166.829 L 427.958 166.829 Q 428.161 166.829 428.39 167.007 L 428.39 167.007 L 428.39 167.007 Q 428.619 167.184 428.619 167.591 L 428.619 167.591 L 428.619 167.946 L 428.619 167.946 Q 428.619 168.657 427.958 168.657 L 427.958 168.657 L 421.507 168.657 L 421.507 176.379 L 428.619 176.379 L 428.619 176.379 Q 429.279 176.379 429.279 177.09 L 429.279 177.09 L 429.279 177.496 L 429.279 177.496 Q 429.279 177.852 429.05 178.03 L 429.05 178.03 L 429.05 178.03 Q 428.822 178.207 428.619 178.207 Z  M 444.417 178.207 L 444.417 178.207 L 443.858 178.207 L 443.858 178.207 Q 443.35 178.207 443.198 177.801 L 443.198 177.801 L 439.947 169.978 L 435.426 169.978 L 435.426 177.496 L 435.426 177.496 Q 435.426 178.207 434.664 178.207 L 434.664 178.207 L 434.359 178.207 L 434.359 178.207 Q 434.105 178.207 433.876 178.08 L 433.876 178.08 L 433.876 178.08 Q 433.648 177.953 433.648 177.496 L 433.648 177.496 L 433.648 158.396 L 433.648 158.396 Q 433.648 157.685 434.359 157.685 L 434.359 157.685 L 440.455 157.685 L 440.455 157.685 Q 442.436 157.685 443.528 158.879 L 443.528 158.879 L 443.528 158.879 Q 444.62 160.073 444.62 162.359 L 444.62 162.359 L 444.62 165.305 L 444.62 165.305 Q 444.62 166.981 443.934 168.073 L 443.934 168.073 L 443.934 168.073 Q 443.248 169.165 441.674 169.877 L 441.674 169.877 L 444.874 177.242 L 444.874 177.242 Q 444.925 177.445 444.95 177.826 L 444.95 177.826 L 444.95 177.826 Q 444.976 178.207 444.417 178.207 Z  M 442.944 165.305 L 442.944 162.359 L 442.944 162.359 Q 442.944 159.463 440.455 159.463 L 440.455 159.463 L 435.426 159.463 L 435.426 168.149 L 440.455 168.149 L 440.455 168.149 Q 442.944 168.149 442.944 165.305 L 442.944 165.305 L 442.944 165.305 Z  M 460.367 178.207 L 460.367 178.207 L 460.062 178.207 L 460.062 178.207 Q 459.656 178.207 459.351 177.75 L 459.351 177.75 L 450.919 161.851 L 450.919 177.496 L 450.919 177.496 Q 450.919 177.75 450.741 177.979 L 450.741 177.979 L 450.741 177.979 Q 450.563 178.207 450.208 178.207 L 450.208 178.207 L 449.852 178.207 L 449.852 178.207 Q 449.141 178.207 449.141 177.496 L 449.141 177.496 L 449.141 158.447 L 449.141 158.447 Q 449.141 157.685 449.852 157.685 L 449.852 157.685 L 450.208 157.685 L 450.208 157.685 Q 450.716 157.685 450.716 157.99 L 450.716 157.99 L 459.351 173.94 L 459.351 158.447 L 459.351 158.447 Q 459.351 158.193 459.478 157.939 L 459.478 157.939 L 459.478 157.939 Q 459.605 157.685 459.961 157.685 L 459.961 157.685 L 460.367 157.685 L 460.367 157.685 Q 460.723 157.685 460.875 157.939 L 460.875 157.939 L 460.875 157.939 Q 461.028 158.193 461.028 158.447 L 461.028 158.447 L 461.028 177.496 L 461.028 177.496 Q 461.028 177.75 460.875 177.979 L 460.875 177.979 L 460.875 177.979 Q 460.723 178.207 460.367 178.207 Z  M 477.842 178.207 L 477.842 178.207 L 477.385 178.207 L 477.385 178.207 Q 477.08 178.207 476.927 178.004 L 476.927 178.004 L 476.927 178.004 Q 476.775 177.801 476.673 177.496 L 476.673 177.496 L 475.149 172.721 L 467.835 172.721 L 466.209 177.598 L 466.209 177.598 Q 465.955 178.207 465.498 178.207 L 465.498 178.207 L 465.142 178.207 L 465.142 178.207 Q 464.787 178.207 464.609 177.903 L 464.609 177.903 L 464.609 177.903 Q 464.431 177.598 464.533 177.293 L 464.533 177.293 L 470.425 158.396 L 470.578 158.091 L 470.578 158.091 Q 470.628 158.041 470.628 158.015 L 470.628 158.015 L 470.628 158.015 Q 470.628 157.99 470.679 157.939 L 470.679 157.939 L 470.679 157.939 Q 470.882 157.685 471.136 157.685 L 471.136 157.685 L 471.797 157.685 L 471.797 157.685 Q 472.305 157.685 472.559 158.295 L 472.559 158.295 L 478.451 177.293 L 478.451 177.293 Q 478.553 177.598 478.375 177.903 L 478.375 177.903 L 478.375 177.903 Q 478.197 178.207 477.842 178.207 Z  M 474.489 170.74 L 471.441 160.428 L 471.441 160.428 Q 470.628 163.527 469.841 166.219 L 469.841 166.219 L 469.841 166.219 Q 469.054 168.911 468.495 170.74 L 468.495 170.74 L 474.489 170.74 L 474.489 170.74 Z  M 491.151 159.514 L 491.151 159.514 L 487.138 159.514 L 487.138 177.496 L 487.138 177.496 Q 487.138 177.75 486.96 177.979 L 486.96 177.979 L 486.96 177.979 Q 486.782 178.207 486.427 178.207 L 486.427 178.207 L 486.122 178.207 L 486.122 178.207 Q 485.766 178.207 485.614 177.979 L 485.614 177.979 L 485.614 177.979 Q 485.461 177.75 485.461 177.496 L 485.461 177.496 L 485.461 159.514 L 481.398 159.514 L 481.398 159.514 Q 481.144 159.514 480.94 159.361 L 480.94 159.361 L 480.94 159.361 Q 480.737 159.209 480.737 158.803 L 480.737 158.803 L 480.737 158.396 L 480.737 158.396 Q 480.737 157.685 481.398 157.685 L 481.398 157.685 L 491.151 157.685 L 491.151 157.685 Q 491.811 157.685 491.811 158.396 L 491.811 158.396 L 491.811 158.803 L 491.811 158.803 Q 491.811 159.514 491.151 159.514 Z  M 495.773 178.207 L 495.773 178.207 L 495.367 178.207 L 495.367 178.207 Q 495.113 178.207 494.961 177.953 L 494.961 177.953 L 494.961 177.953 Q 494.808 177.699 494.808 177.445 L 494.808 177.445 L 494.808 158.447 L 494.808 158.447 Q 494.808 157.685 495.367 157.685 L 495.367 157.685 L 495.773 157.685 L 495.773 157.685 Q 496.434 157.685 496.434 158.447 L 496.434 158.447 L 496.434 177.445 L 496.434 177.445 Q 496.434 178.207 495.773 178.207 Z  M 512.638 158.498 L 507.254 177.598 L 507.254 177.598 Q 507.152 177.852 507 178.03 L 507 178.03 L 507 178.03 Q 506.847 178.207 506.593 178.207 L 506.593 178.207 L 505.882 178.207 L 505.882 178.207 Q 505.425 178.207 505.273 177.801 L 505.273 177.801 L 505.273 177.801 Q 505.273 177.699 505.247 177.674 L 505.247 177.674 L 505.247 177.674 Q 505.222 177.649 505.222 177.598 L 505.222 177.598 L 499.786 158.498 L 499.786 158.498 Q 499.685 158.244 499.812 157.965 L 499.812 157.965 L 499.812 157.965 Q 499.939 157.685 500.345 157.685 L 500.345 157.685 L 500.802 157.685 L 500.802 157.685 Q 501.107 157.685 501.209 157.863 L 501.209 157.863 L 501.209 157.863 Q 501.31 158.041 501.412 158.295 L 501.412 158.295 L 506.238 174.855 L 510.962 158.396 L 511.114 158.091 L 511.114 157.99 L 511.165 157.939 L 511.267 157.838 L 511.267 157.838 Q 511.368 157.685 511.622 157.685 L 511.622 157.685 L 512.13 157.685 L 512.13 157.685 Q 512.537 157.685 512.638 157.965 L 512.638 157.965 L 512.638 157.965 Q 512.74 158.244 512.638 158.498 L 512.638 158.498 L 512.638 158.498 Z  M 525.185 178.207 L 525.185 178.207 L 517.058 178.207 L 517.058 178.207 Q 516.448 178.207 516.448 177.496 L 516.448 177.496 L 516.448 158.447 L 516.448 158.447 Q 516.448 157.685 517.058 157.685 L 517.058 157.685 L 525.185 157.685 L 525.185 157.685 Q 525.846 157.685 525.846 158.396 L 525.846 158.396 L 525.846 158.803 L 525.846 158.803 Q 525.846 159.158 525.617 159.336 L 525.617 159.336 L 525.617 159.336 Q 525.388 159.514 525.185 159.514 L 525.185 159.514 L 518.074 159.514 L 518.074 166.829 L 524.525 166.829 L 524.525 166.829 Q 524.728 166.829 524.957 167.007 L 524.957 167.007 L 524.957 167.007 Q 525.185 167.184 525.185 167.591 L 525.185 167.591 L 525.185 167.946 L 525.185 167.946 Q 525.185 168.657 524.525 168.657 L 524.525 168.657 L 518.074 168.657 L 518.074 176.379 L 525.185 176.379 L 525.185 176.379 Q 525.846 176.379 525.846 177.09 L 525.846 177.09 L 525.846 177.496 L 525.846 177.496 Q 525.846 177.852 525.617 178.03 L 525.617 178.03 L 525.617 178.03 Q 525.388 178.207 525.185 178.207 Z  M 385.948 77.12 L 385.948 77.12 L 381.935 77.12 L 381.935 95.102 L 381.935 95.102 Q 381.935 95.356 381.758 95.585 L 381.758 95.585 L 381.758 95.585 Q 381.58 95.813 381.224 95.813 L 381.224 95.813 L 380.919 95.813 L 380.919 95.813 Q 380.564 95.813 380.411 95.585 L 380.411 95.585 L 380.411 95.585 Q 380.259 95.356 380.259 95.102 L 380.259 95.102 L 380.259 77.12 L 376.195 77.12 L 376.195 77.12 Q 375.941 77.12 375.738 76.967 L 375.738 76.967 L 375.738 76.967 Q 375.535 76.815 375.535 76.409 L 375.535 76.409 L 375.535 76.002 L 375.535 76.002 Q 375.535 75.291 376.195 75.291 L 376.195 75.291 L 385.948 75.291 L 385.948 75.291 Q 386.609 75.291 386.609 76.002 L 386.609 76.002 L 386.609 76.409 L 386.609 76.409 Q 386.609 77.12 385.948 77.12 Z  M 398.902 95.813 L 398.902 95.813 L 390.774 95.813 L 390.774 95.813 Q 390.165 95.813 390.165 95.102 L 390.165 95.102 L 390.165 76.053 L 390.165 76.053 Q 390.165 75.291 390.774 75.291 L 390.774 75.291 L 398.902 75.291 L 398.902 75.291 Q 399.562 75.291 399.562 76.002 L 399.562 76.002 L 399.562 76.409 L 399.562 76.409 Q 399.562 76.764 399.334 76.942 L 399.334 76.942 L 399.334 76.942 Q 399.105 77.12 398.902 77.12 L 398.902 77.12 L 391.79 77.12 L 391.79 84.435 L 398.242 84.435 L 398.242 84.435 Q 398.445 84.435 398.673 84.612 L 398.673 84.612 L 398.673 84.612 Q 398.902 84.79 398.902 85.197 L 398.902 85.197 L 398.902 85.552 L 398.902 85.552 Q 398.902 86.263 398.242 86.263 L 398.242 86.263 L 391.79 86.263 L 391.79 93.985 L 398.902 93.985 L 398.902 93.985 Q 399.562 93.985 399.562 94.696 L 399.562 94.696 L 399.562 95.102 L 399.562 95.102 Q 399.562 95.458 399.334 95.636 L 399.334 95.636 L 399.334 95.636 Q 399.105 95.813 398.902 95.813 Z  M 414.7 95.813 L 414.7 95.813 L 414.141 95.813 L 414.141 95.813 Q 413.633 95.813 413.481 95.407 L 413.481 95.407 L 410.23 87.584 L 405.709 87.584 L 405.709 95.102 L 405.709 95.102 Q 405.709 95.813 404.947 95.813 L 404.947 95.813 L 404.642 95.813 L 404.642 95.813 Q 404.388 95.813 404.159 95.686 L 404.159 95.686 L 404.159 95.686 Q 403.931 95.559 403.931 95.102 L 403.931 95.102 L 403.931 76.002 L 403.931 76.002 Q 403.931 75.291 404.642 75.291 L 404.642 75.291 L 410.738 75.291 L 410.738 75.291 Q 412.719 75.291 413.811 76.485 L 413.811 76.485 L 413.811 76.485 Q 414.903 77.679 414.903 79.964 L 414.903 79.964 L 414.903 82.911 L 414.903 82.911 Q 414.903 84.587 414.217 85.679 L 414.217 85.679 L 414.217 85.679 Q 413.532 86.771 411.957 87.483 L 411.957 87.483 L 415.157 94.848 L 415.157 94.848 Q 415.208 95.051 415.233 95.432 L 415.233 95.432 L 415.233 95.432 Q 415.259 95.813 414.7 95.813 Z  M 413.227 82.911 L 413.227 79.964 L 413.227 79.964 Q 413.227 77.069 410.738 77.069 L 410.738 77.069 L 405.709 77.069 L 405.709 85.755 L 410.738 85.755 L 410.738 85.755 Q 413.227 85.755 413.227 82.911 L 413.227 82.911 L 413.227 82.911 Z  M 430.041 95.813 L 430.041 95.813 L 429.482 95.813 L 429.482 95.813 Q 428.974 95.813 428.822 95.407 L 428.822 95.407 L 425.571 87.584 L 421.05 87.584 L 421.05 95.102 L 421.05 95.102 Q 421.05 95.813 420.288 95.813 L 420.288 95.813 L 419.983 95.813 L 419.983 95.813 Q 419.729 95.813 419.5 95.686 L 419.5 95.686 L 419.5 95.686 Q 419.272 95.559 419.272 95.102 L 419.272 95.102 L 419.272 76.002 L 419.272 76.002 Q 419.272 75.291 419.983 75.291 L 419.983 75.291 L 426.079 75.291 L 426.079 75.291 Q 428.06 75.291 429.152 76.485 L 429.152 76.485 L 429.152 76.485 Q 430.244 77.679 430.244 79.964 L 430.244 79.964 L 430.244 82.911 L 430.244 82.911 Q 430.244 84.587 429.558 85.679 L 429.558 85.679 L 429.558 85.679 Q 428.873 86.771 427.298 87.483 L 427.298 87.483 L 430.498 94.848 L 430.498 94.848 Q 430.549 95.051 430.574 95.432 L 430.574 95.432 L 430.574 95.432 Q 430.6 95.813 430.041 95.813 Z  M 428.568 82.911 L 428.568 79.964 L 428.568 79.964 Q 428.568 77.069 426.079 77.069 L 426.079 77.069 L 421.05 77.069 L 421.05 85.755 L 426.079 85.755 L 426.079 85.755 Q 428.568 85.755 428.568 82.911 L 428.568 82.911 L 428.568 82.911 Z  M 446.855 95.813 L 446.855 95.813 L 446.398 95.813 L 446.398 95.813 Q 446.093 95.813 445.941 95.61 L 445.941 95.61 L 445.941 95.61 Q 445.788 95.407 445.687 95.102 L 445.687 95.102 L 444.163 90.327 L 436.848 90.327 L 435.222 95.204 L 435.222 95.204 Q 434.968 95.813 434.511 95.813 L 434.511 95.813 L 434.156 95.813 L 434.156 95.813 Q 433.8 95.813 433.622 95.509 L 433.622 95.509 L 433.622 95.509 Q 433.444 95.204 433.546 94.899 L 433.546 94.899 L 439.439 76.002 L 439.591 75.697 L 439.591 75.697 Q 439.642 75.647 439.642 75.621 L 439.642 75.621 L 439.642 75.621 Q 439.642 75.596 439.693 75.545 L 439.693 75.545 L 439.693 75.545 Q 439.896 75.291 440.15 75.291 L 440.15 75.291 L 440.81 75.291 L 440.81 75.291 Q 441.318 75.291 441.572 75.901 L 441.572 75.901 L 447.465 94.899 L 447.465 94.899 Q 447.566 95.204 447.388 95.509 L 447.388 95.509 L 447.388 95.509 Q 447.211 95.813 446.855 95.813 Z  M 443.502 88.346 L 440.455 78.034 L 440.455 78.034 Q 439.642 81.133 438.854 83.825 L 438.854 83.825 L 438.854 83.825 Q 438.067 86.517 437.508 88.346 L 437.508 88.346 L 443.502 88.346 L 443.502 88.346 Z  M 459.808 77.12 L 459.808 77.12 L 452.697 77.12 L 452.697 84.739 L 459.097 84.739 L 459.097 84.739 Q 459.301 84.739 459.529 84.917 L 459.529 84.917 L 459.529 84.917 Q 459.758 85.095 459.758 85.4 L 459.758 85.4 L 459.758 85.755 L 459.758 85.755 Q 459.758 86.213 459.529 86.365 L 459.529 86.365 L 459.529 86.365 Q 459.301 86.517 459.097 86.517 L 459.097 86.517 L 452.697 86.517 L 452.697 95.102 L 452.697 95.102 Q 452.697 95.356 452.544 95.585 L 452.544 95.585 L 452.544 95.585 Q 452.392 95.813 452.036 95.813 L 452.036 95.813 L 451.681 95.813 L 451.681 95.813 Q 451.02 95.813 451.02 95.102 L 451.02 95.102 L 451.02 76.053 L 451.02 76.053 Q 451.02 75.748 451.173 75.52 L 451.173 75.52 L 451.173 75.52 Q 451.325 75.291 451.681 75.291 L 451.681 75.291 L 459.808 75.291 L 459.808 75.291 Q 460.469 75.291 460.469 76.002 L 460.469 76.002 L 460.469 76.409 L 460.469 76.409 Q 460.469 76.764 460.24 76.942 L 460.24 76.942 L 460.24 76.942 Q 460.012 77.12 459.808 77.12 Z  M 471.797 95.813 L 471.797 95.813 L 468.343 95.813 L 468.343 95.813 Q 466.412 95.813 465.345 94.62 L 465.345 94.62 L 465.345 94.62 Q 464.279 93.426 464.279 91.14 L 464.279 91.14 L 464.279 79.964 L 464.279 79.964 Q 464.279 77.831 465.345 76.561 L 465.345 76.561 L 465.345 76.561 Q 466.412 75.291 468.343 75.291 L 468.343 75.291 L 471.797 75.291 L 471.797 75.291 Q 473.727 75.291 474.845 76.561 L 474.845 76.561 L 474.845 76.561 Q 475.962 77.831 475.962 79.964 L 475.962 79.964 L 475.962 91.14 L 475.962 91.14 Q 475.962 93.426 474.87 94.62 L 474.87 94.62 L 474.87 94.62 Q 473.778 95.813 471.797 95.813 Z  M 474.235 91.089 L 474.235 79.964 L 474.235 79.964 Q 474.235 77.12 471.797 77.12 L 471.797 77.12 L 468.343 77.12 L 468.343 77.12 Q 465.955 77.12 465.955 79.964 L 465.955 79.964 L 465.955 91.089 L 465.955 91.089 Q 465.955 93.985 468.343 93.985 L 468.343 93.985 L 471.797 93.985 L 471.797 93.985 Q 474.235 93.985 474.235 91.089 L 474.235 91.089 L 474.235 91.089 Z  M 491.049 95.813 L 491.049 95.813 L 490.49 95.813 L 490.49 95.813 Q 489.982 95.813 489.83 95.407 L 489.83 95.407 L 486.579 87.584 L 482.058 87.584 L 482.058 95.102 L 482.058 95.102 Q 482.058 95.813 481.296 95.813 L 481.296 95.813 L 480.991 95.813 L 480.991 95.813 Q 480.737 95.813 480.509 95.686 L 480.509 95.686 L 480.509 95.686 Q 480.28 95.559 480.28 95.102 L 480.28 95.102 L 480.28 76.002 L 480.28 76.002 Q 480.28 75.291 480.991 75.291 L 480.991 75.291 L 487.087 75.291 L 487.087 75.291 Q 489.068 75.291 490.16 76.485 L 490.16 76.485 L 490.16 76.485 Q 491.252 77.679 491.252 79.964 L 491.252 79.964 L 491.252 82.911 L 491.252 82.911 Q 491.252 84.587 490.567 85.679 L 490.567 85.679 L 490.567 85.679 Q 489.881 86.771 488.306 87.483 L 488.306 87.483 L 491.506 94.848 L 491.506 94.848 Q 491.557 95.051 491.583 95.432 L 491.583 95.432 L 491.583 95.432 Q 491.608 95.813 491.049 95.813 Z  M 489.576 82.911 L 489.576 79.964 L 489.576 79.964 Q 489.576 77.069 487.087 77.069 L 487.087 77.069 L 482.058 77.069 L 482.058 85.755 L 487.087 85.755 L 487.087 85.755 Q 489.576 85.755 489.576 82.911 L 489.576 82.911 L 489.576 82.911 Z  M 510.505 95.813 L 510.505 95.813 L 510.098 95.813 L 510.098 95.813 Q 509.438 95.813 509.438 95.102 L 509.438 95.102 L 509.438 79.558 L 504.511 91.089 L 504.511 91.089 Q 504.257 91.546 503.698 91.546 L 503.698 91.546 L 503.241 91.546 L 503.241 91.546 Q 502.682 91.546 502.479 91.089 L 502.479 91.089 L 497.551 79.456 L 497.551 95.102 L 497.551 95.102 Q 497.551 95.356 497.399 95.585 L 497.399 95.585 L 497.399 95.585 Q 497.247 95.813 496.891 95.813 L 496.891 95.813 L 496.485 95.813 L 496.485 95.813 Q 495.773 95.813 495.773 95.102 L 495.773 95.102 L 495.773 76.053 L 495.773 76.053 Q 495.773 75.291 496.485 75.291 L 496.485 75.291 L 497.247 75.291 L 497.247 75.291 Q 497.704 75.291 497.856 75.697 L 497.856 75.697 L 503.495 88.905 L 509.032 75.697 L 509.032 75.697 Q 509.184 75.291 509.692 75.291 L 509.692 75.291 L 510.505 75.291 L 510.505 75.291 Q 510.86 75.291 511.013 75.545 L 511.013 75.545 L 511.013 75.545 Q 511.165 75.799 511.165 76.053 L 511.165 76.053 L 511.165 95.102 L 511.165 95.102 Q 511.165 95.356 511.013 95.585 L 511.013 95.585 L 511.013 95.585 Q 510.86 95.813 510.505 95.813 Z " fill="rgb(0,0,0)"/></g></svg>